<svg width="13" height="9" viewBox="0 0 13 9" fill="none" xmlns="http://www.w3.org/2000/svg">
<g id="Group">
<path id="Vector" d="M2.8001 6.2001C2.64097 6.2001 2.48836 6.13688 2.37583 6.02436C2.26331 5.91184 2.2001 5.75923 2.2001 5.6001V2.8001C2.2001 2.64097 2.26331 2.48836 2.37583 2.37583C2.48836 2.26331 2.64097 2.2001 2.8001 2.2001H6.9001V6.2001H2.8001Z" fill="#2E3A59" fill-opacity="0.85" stroke="white" stroke-width="0.2"/>
<path id="Vector_2" d="M12.3 6.2H12.2V6.3C12.2 6.83043 11.9893 7.33914 11.6142 7.71421C11.2391 8.08929 10.7304 8.3 10.2 8.3H2.1C1.56957 8.3 1.06086 8.08929 0.685787 7.71421C0.310714 7.33914 0.1 6.83043 0.1 6.3V2.1C0.1 1.56957 0.310714 1.06086 0.685786 0.685786C1.06086 0.310714 1.56957 0.1 2.1 0.1H10.2C10.7304 0.1 11.2391 0.310714 11.6142 0.685786C11.9893 1.06086 12.2 1.56957 12.2 2.1V2.2H12.3C12.4591 2.2 12.6117 2.26321 12.7243 2.37574C12.8368 2.48826 12.9 2.64087 12.9 2.8V5.6C12.9 5.75913 12.8368 5.91174 12.7243 6.02426C12.6117 6.13679 12.4591 6.2 12.3 6.2ZM10.2 1.3H2.1C1.88783 1.3 1.68434 1.38429 1.53431 1.53431C1.38429 1.68434 1.3 1.88783 1.3 2.1V6.3C1.3 6.51217 1.38429 6.71566 1.53431 6.86568C1.68434 7.01571 1.88783 7.1 2.1 7.1H10.2C10.4122 7.1 10.6157 7.01571 10.7657 6.86568C10.9157 6.71566 11 6.51217 11 6.3V2.1C11 1.88783 10.9157 1.68434 10.7657 1.53431C10.6157 1.38429 10.4122 1.3 10.2 1.3Z" fill="#2E3A59" fill-opacity="0.85" stroke="white" stroke-width="0.2"/>
</g>
</svg>
