<svg width="14" height="12" viewBox="0 0 14 12" fill="none" xmlns="http://www.w3.org/2000/svg">
<path id="Vector" d="M5.08844 2.64474L5.0884 2.64494C5.07548 2.71637 5.07779 2.78946 5.0952 2.86012C5.11263 2.93078 5.14489 2.99786 5.19041 3.05745C5.23595 3.11706 5.29389 3.16804 5.36113 3.20726C5.42838 3.24648 5.50351 3.27309 5.58222 3.28538L5.58276 3.28547C5.61592 3.2909 5.64956 3.29356 5.68326 3.29343L5.68348 3.29343C5.82714 3.2933 5.96544 3.24573 6.07395 3.16014C6.18232 3.07466 6.25371 2.95709 6.27699 2.82886C6.27699 2.82882 6.277 2.82878 6.27701 2.82874L6.35081 2.84212C6.42925 2.3999 6.67399 1.99816 7.0412 1.70884C7.4084 1.41953 7.87408 1.26154 8.35484 1.26317L5.08844 2.64474ZM5.08844 2.64474C5.21625 1.92675 5.61404 1.27341 6.21219 0.802158C6.81045 0.330825 7.56984 0.0727279 8.35462 0.0750154H8.35484C8.51624 0.0750154 8.67006 0.134842 8.7827 0.239857C8.89516 0.344707 8.95726 0.485743 8.95726 0.631594C8.95726 0.777444 8.89516 0.91848 8.7827 1.02333C8.67009 1.12832 8.51631 1.18814 8.35495 1.18817L5.08844 2.64474ZM10.3229 5.21839C10.4367 7.55939 11.5997 9.80195 12.1724 10.7749L12.1941 10.8118H12.237H13.3226C13.484 10.8118 13.6378 10.8717 13.7504 10.9767C13.8629 11.0815 13.925 11.2226 13.925 11.3684C13.925 11.5143 13.8629 11.6553 13.7504 11.7602C13.6378 11.8652 13.484 11.925 13.3226 11.925H0.677419C0.516018 11.925 0.362193 11.8652 0.249556 11.7602C0.137096 11.6553 0.075 11.5143 0.075 11.3684C0.075 11.2226 0.137096 11.0815 0.249556 10.9767C0.362193 10.8717 0.516018 10.8118 0.677419 10.8118H1.58911H1.63529L1.65608 10.7706C2.36238 9.36965 3.14248 7.36496 3.22889 5.22356L3.2289 5.22336C3.23837 4.97253 3.35227 4.7338 3.54833 4.55823C3.74455 4.38252 4.00746 4.28422 4.2815 4.28554H4.28185H9.26879H9.26886C9.54178 4.28527 9.80341 4.38318 9.99948 4.55757C10.1954 4.73181 10.3106 4.96866 10.3229 5.21839ZM10.3229 5.21839L10.3978 5.21475M10.3229 5.21839C10.3229 5.21841 10.3229 5.21843 10.3229 5.21845L10.3978 5.21475M10.3978 5.21475C10.3845 4.94405 10.2596 4.68859 10.0493 4.50153C9.83902 4.31448 9.55944 4.21025 9.26879 4.21054M10.3978 5.21475C10.5107 7.53685 11.6657 9.76632 12.237 10.7368H13.3226C13.5022 10.7368 13.6745 10.8034 13.8016 10.9218C13.9286 11.0403 14 11.2009 14 11.3684C14 11.5359 13.9286 11.6966 13.8016 11.815C13.6745 11.9335 13.5022 12 13.3226 12H0.677419C0.497757 12 0.325452 11.9335 0.198412 11.815C0.0713708 11.6966 0 11.5359 0 11.3684C0 11.2009 0.0713708 11.0403 0.198412 10.9218C0.325452 10.8034 0.497757 10.7368 0.677419 10.7368H1.58911C2.29306 9.34053 3.06815 7.34685 3.15395 5.22054L9.26879 4.21054M9.26879 4.21054H4.28185H9.26879ZM9.12965 5.46843L9.12475 5.39869H9.05484H8.15161H8.07153L8.07677 5.4786C8.21092 7.52367 8.95677 9.4255 9.63538 10.7706L9.65617 10.8118H9.70234H10.706H10.8313L10.7722 10.7014C10.1121 9.46968 9.27536 7.54057 9.12965 5.46843ZM3.00748 10.7052L2.95787 10.8118H3.07548H8.21258H8.3302L8.28058 10.7052C7.62467 9.29544 6.98211 7.44868 6.86543 5.46928L6.86127 5.39869H6.79056H4.4975H4.42679L4.42263 5.46928C4.30596 7.44868 3.6634 9.29544 3.00748 10.7052ZM7.70117 2.34512C7.81381 2.2401 7.96763 2.18028 8.12903 2.18028H8.35484C8.79231 2.18028 9.21284 2.0183 9.52367 1.7285C9.83468 1.43854 10.0105 1.04409 10.0105 0.631594C10.0105 0.485743 10.0726 0.344707 10.185 0.239857C10.2977 0.134842 10.4515 0.0750154 10.6129 0.0750154C10.7743 0.0750154 10.9281 0.134842 11.0408 0.239857C11.1532 0.344684 11.2153 0.485683 11.2153 0.631501C11.2145 1.33548 10.9142 2.01155 10.3784 2.51105C9.84247 3.01072 9.11479 3.29262 8.35476 3.29343H8.12903C7.96763 3.29343 7.81381 3.23361 7.70117 3.12859C7.58871 3.02374 7.52661 2.8827 7.52661 2.73685C7.52661 2.591 7.58871 2.44997 7.70117 2.34512Z" fill="#2E3A59" fill-opacity="0.85" stroke="white" stroke-width="0.15"/>
</svg>
