<svg width="14" height="10" viewBox="0 0 14 10" fill="none" xmlns="http://www.w3.org/2000/svg">
<g id="Vector">
<path fill-rule="evenodd" clip-rule="evenodd" d="M2.87105 0.971542C3.25616 0.341529 4.06156 0.365115 4.46844 0.909472C5.01654 1.64252 5.789 2.36192 7.01133 2.36192C8.25486 2.36192 9.0156 1.78466 9.53356 1.06092C9.93598 0.497946 10.7944 0.407323 11.2163 1.0752C11.5613 1.62142 11.9386 2.05591 12.6831 2.24026C12.7889 2.26972 12.8801 2.3439 12.9374 2.44702C12.9948 2.55013 13.0137 2.67405 12.9901 2.79242C12.9666 2.91079 12.9024 3.01426 12.8113 3.08085C12.7202 3.14743 12.6094 3.17187 12.5023 3.14897C11.4748 2.89572 10.9401 2.25764 10.531 1.61025C10.5042 1.56742 10.4556 1.53576 10.3825 1.53762C10.3455 1.53816 10.309 1.54759 10.2756 1.56527C10.2421 1.58294 10.2125 1.60845 10.1888 1.64004C9.53244 2.55744 8.54063 3.29297 7.01133 3.29297C5.4357 3.29297 4.44947 2.34205 3.82435 1.50411C3.80658 1.48051 3.78425 1.46167 3.75903 1.44899C3.73381 1.43631 3.70634 1.43011 3.67867 1.43086C3.65608 1.42991 3.63364 1.43532 3.61344 1.44661C3.59324 1.4579 3.57593 1.47469 3.56314 1.49542C3.14677 2.17633 2.61263 2.87958 1.52035 3.14897C1.46608 3.16409 1.40963 3.16696 1.35435 3.15741C1.29906 3.14786 1.24606 3.12608 1.19847 3.09336C1.15088 3.06064 1.10968 3.01765 1.07729 2.96691C1.0449 2.91618 1.02198 2.85874 1.00989 2.79799C0.9978 2.73724 0.996784 2.67442 1.0069 2.61322C1.01702 2.55203 1.03806 2.49371 1.06879 2.44171C1.09952 2.38972 1.13931 2.3451 1.18581 2.3105C1.23231 2.2759 1.28457 2.25201 1.33951 2.24026C2.12761 2.04536 2.50491 1.5699 2.87105 0.971542ZM2.87105 4.07506C3.25616 3.44504 4.06156 3.46863 4.46844 4.01299C5.01654 4.74604 5.789 5.46543 7.01133 5.46543C8.25486 5.46543 9.0156 4.88818 9.53356 4.16444C9.93598 3.60146 10.7944 3.51084 11.2163 4.17871C11.5613 4.72493 11.9386 5.15942 12.6831 5.34377C12.7889 5.37324 12.8801 5.44742 12.9374 5.55053C12.9948 5.65365 13.0137 5.77757 12.9901 5.89593C12.9666 6.0143 12.9024 6.11778 12.8113 6.18436C12.7202 6.25095 12.6094 6.27539 12.5023 6.25248C11.4748 5.99924 10.9401 5.36115 10.531 4.71376C10.5042 4.67093 10.4556 4.63928 10.3825 4.64114C10.3455 4.64167 10.309 4.6511 10.2756 4.66878C10.2421 4.68646 10.2125 4.71197 10.1888 4.74355C9.53244 5.66157 8.54063 6.39649 7.01133 6.39649C5.4357 6.39649 4.44947 5.44495 3.82435 4.60762C3.80658 4.58402 3.78425 4.56519 3.75903 4.55251C3.73381 4.53982 3.70634 4.53363 3.67867 4.53438C3.65608 4.53342 3.63364 4.53884 3.61344 4.55012C3.59324 4.56141 3.57593 4.5782 3.56314 4.59893C3.14677 5.27984 2.61263 5.9831 1.52035 6.25248C1.41192 6.27915 1.2984 6.25682 1.20478 6.19042C1.11115 6.12401 1.04507 6.01896 1.02109 5.89837C0.997114 5.77779 1.01719 5.65155 1.0769 5.54742C1.13662 5.4433 1.23108 5.36982 1.33951 5.34315C2.12761 5.14949 2.50491 4.67341 2.87105 4.07506ZM2.87105 7.17857C3.25616 6.54856 4.06156 6.57214 4.46844 7.1165C5.01654 7.84955 5.789 8.56895 7.01133 8.56895C8.25486 8.56895 9.0156 7.99169 9.53356 7.26795C9.93598 6.70497 10.7944 6.61435 11.2163 7.28223C11.5613 7.82845 11.9386 8.26294 12.6831 8.44729C12.7889 8.47675 12.8801 8.55093 12.9374 8.65405C12.9948 8.75716 13.0137 8.88108 12.9901 8.99945C12.9666 9.11781 12.9024 9.22129 12.8113 9.28788C12.7202 9.35446 12.6094 9.3789 12.5023 9.356C11.4748 9.10275 10.9401 8.46467 10.531 7.81727C10.5042 7.77445 10.4556 7.74279 10.3825 7.74465C10.3455 7.74519 10.309 7.75462 10.2756 7.7723C10.2421 7.78997 10.2125 7.81548 10.1888 7.84707C9.53244 8.76509 8.54063 9.5 7.01133 9.5C5.4357 9.5 4.44947 8.54908 3.82435 7.71113C3.80658 7.68754 3.78425 7.6687 3.75903 7.65602C3.73381 7.64334 3.70634 7.63714 3.67867 7.63789C3.65608 7.63693 3.63364 7.64235 3.61344 7.65364C3.59324 7.66493 3.57593 7.68172 3.56314 7.70244C3.14677 8.38336 2.61263 9.08661 1.52035 9.356C1.41192 9.38266 1.2984 9.36034 1.20478 9.29393C1.11115 9.22752 1.04507 9.12247 1.02109 9.00189C0.997114 8.8813 1.01719 8.75506 1.0769 8.65094C1.13662 8.54681 1.23108 8.47334 1.33951 8.44667C2.12761 8.25301 2.50491 7.77693 2.87105 7.17857Z" fill="#2E3A59" fill-opacity="0.85"/>
<path d="M3.82435 1.50411C4.44947 2.34205 5.4357 3.29297 7.01133 3.29297C8.54063 3.29297 9.53244 2.55744 10.1888 1.64004C10.2125 1.60845 10.2421 1.58294 10.2756 1.56527C10.309 1.54759 10.3455 1.53816 10.3825 1.53762C10.4556 1.53576 10.5042 1.56742 10.531 1.61025C10.9401 2.25764 11.4748 2.89572 12.5023 3.14897C12.6093 3.17187 12.7202 3.14743 12.8113 3.08085C12.9024 3.01426 12.9666 2.91079 12.9901 2.79242C13.0137 2.67405 12.9948 2.55013 12.9374 2.44702C12.8801 2.3439 12.7889 2.26972 12.6831 2.24026C11.9386 2.05591 11.5613 1.62142 11.2163 1.0752C10.7944 0.407323 9.93598 0.497946 9.53356 1.06092C9.0156 1.78466 8.25486 2.36192 7.01133 2.36192C5.789 2.36192 5.01654 1.64252 4.46844 0.909472C4.06156 0.365115 3.25616 0.341529 2.87105 0.971542C2.50491 1.5699 2.12761 2.04536 1.33951 2.24026C1.28457 2.25201 1.23231 2.2759 1.18581 2.3105C1.13931 2.3451 1.09952 2.38972 1.06879 2.44171C1.03806 2.49371 1.01702 2.55203 1.0069 2.61322C0.996784 2.67442 0.9978 2.73724 1.00989 2.79799C1.02198 2.85874 1.0449 2.91618 1.07729 2.96691C1.10968 3.01765 1.15088 3.06064 1.19847 3.09336C1.24606 3.12608 1.29906 3.14786 1.35435 3.15741C1.40963 3.16696 1.46608 3.16409 1.52035 3.14897C2.61263 2.87958 3.14677 2.17633 3.56314 1.49542C3.57593 1.47469 3.59324 1.4579 3.61344 1.44661C3.63364 1.43532 3.65608 1.42991 3.67868 1.43086C3.70634 1.43011 3.73381 1.43631 3.75903 1.44899C3.78425 1.46167 3.80658 1.48051 3.82435 1.50411ZM3.82435 1.50411L4.1464 1.20617M2.87105 4.07506C3.25616 3.44504 4.06156 3.46863 4.46844 4.01299C5.01654 4.74604 5.789 5.46543 7.01133 5.46543C8.25486 5.46543 9.0156 4.88818 9.53356 4.16444C9.93598 3.60146 10.7944 3.51084 11.2163 4.17871C11.5613 4.72493 11.9386 5.15942 12.6831 5.34377C12.7889 5.37324 12.8801 5.44742 12.9374 5.55053C12.9948 5.65365 13.0137 5.77757 12.9901 5.89593C12.9666 6.0143 12.9024 6.11778 12.8113 6.18436C12.7202 6.25095 12.6093 6.27539 12.5023 6.25248C11.4748 5.99924 10.9401 5.36115 10.531 4.71376C10.5042 4.67093 10.4556 4.63928 10.3825 4.64114C10.3455 4.64167 10.309 4.6511 10.2756 4.66878C10.2421 4.68646 10.2125 4.71196 10.1888 4.74355C9.53244 5.66157 8.54063 6.39649 7.01133 6.39649C5.4357 6.39649 4.44947 5.44495 3.82435 4.60762C3.80658 4.58402 3.78425 4.56519 3.75903 4.5525C3.73381 4.53982 3.70634 4.53363 3.67868 4.53438C3.65608 4.53342 3.63364 4.53884 3.61344 4.55012C3.59324 4.56141 3.57593 4.5782 3.56314 4.59893C3.14677 5.27984 2.61263 5.9831 1.52035 6.25248C1.41192 6.27915 1.2984 6.25683 1.20478 6.19042C1.11115 6.12401 1.04507 6.01896 1.02109 5.89837C0.997114 5.77779 1.01719 5.65155 1.0769 5.54742C1.13662 5.4433 1.23108 5.36982 1.33951 5.34315C2.12761 5.14949 2.50491 4.67341 2.87105 4.07506ZM2.87105 7.17857C3.25616 6.54856 4.06156 6.57214 4.46844 7.1165C5.01654 7.84955 5.789 8.56895 7.01133 8.56895C8.25486 8.56895 9.0156 7.99169 9.53356 7.26795C9.93598 6.70497 10.7944 6.61435 11.2163 7.28223C11.5613 7.82845 11.9386 8.26294 12.6831 8.44729C12.7889 8.47675 12.8801 8.55093 12.9374 8.65405C12.9948 8.75716 13.0137 8.88108 12.9901 8.99945C12.9666 9.11781 12.9024 9.22129 12.8113 9.28788C12.7202 9.35446 12.6093 9.3789 12.5023 9.356C11.4748 9.10275 10.9401 8.46467 10.531 7.81727C10.5042 7.77445 10.4556 7.74279 10.3825 7.74465C10.3455 7.74519 10.309 7.75462 10.2756 7.7723C10.2421 7.78997 10.2125 7.81548 10.1888 7.84707C9.53244 8.76509 8.54063 9.5 7.01133 9.5C5.4357 9.5 4.44947 8.54908 3.82435 7.71113C3.80658 7.68754 3.78425 7.6687 3.75903 7.65602C3.73381 7.64334 3.70634 7.63714 3.67868 7.63789C3.65608 7.63693 3.63364 7.64235 3.61344 7.65364C3.59324 7.66493 3.57593 7.68172 3.56314 7.70244C3.14677 8.38336 2.61263 9.08661 1.52035 9.356C1.41192 9.38266 1.2984 9.36034 1.20478 9.29393C1.11115 9.22752 1.04507 9.12247 1.02109 9.00189C0.997114 8.8813 1.01719 8.75506 1.0769 8.65094C1.13662 8.54681 1.23108 8.47334 1.33951 8.44667C2.12761 8.25301 2.50491 7.77693 2.87105 7.17857Z" stroke="#2E3A59" stroke-width="0.25"/>
</g>
</svg>
