<svg width="10" height="13" viewBox="0 0 10 13" fill="none" xmlns="http://www.w3.org/2000/svg">
<path id="Vector" d="M9.67908 8.08807L8.63862 6.14505C8.51262 5.92078 8.30579 5.75753 8.06362 5.69121L6.84518 5.37446C6.82693 5.15227 6.77216 4.93953 6.6672 4.7457L8.47433 1.63024C8.77096 1.11966 8.61124 0.457807 8.11838 0.150517C7.92384 0.0314473 7.69728 -0.0190904 7.47267 0.00647938C7.24806 0.0320492 7.0375 0.132349 6.87256 0.292343L5.3073 1.80989C5.12476 1.98481 5.0198 2.23537 5.0198 2.49538V4.10275C4.80532 4.18312 4.61365 4.31549 4.45849 4.49041H1.04047C0.456345 4.49041 0 4.96316 0 5.56829C0 6.0505 0.305751 6.47125 0.75297 6.60362L2.81109 7.21348C2.89323 7.23712 2.97993 7.2513 3.06208 7.2513C3.22636 7.2513 3.39065 7.20402 3.53211 7.1142L4.56345 6.48071C4.68667 6.60362 4.84182 6.7029 5.0198 6.76909V12.0723C4.51782 12.0723 2.09453 12.0723 2.09453 13H8.85776C8.86222 12.0723 6.43447 12.0723 5.93249 12.0723V7.19457L8.03624 9.37397C8.2416 9.58671 8.50628 9.69071 8.77096 9.69071C9.03564 9.69071 9.30488 9.58671 9.50567 9.37397C9.83424 9.03358 9.90726 8.50883 9.67908 8.08807ZM3.06664 6.30579L1.00396 5.69593C0.949198 5.6723 0.912691 5.62502 0.912691 5.56829C0.912691 5.49738 0.972015 5.43592 1.04047 5.43592H4.10711C4.10711 5.50683 4.10711 5.57774 4.12536 5.64393L3.06664 6.30579ZM5.47614 5.90867C5.22515 5.90867 5.0198 5.69593 5.0198 5.43592C5.0198 5.1759 5.22515 4.96316 5.47614 4.96316C5.72713 4.96316 5.93249 5.1759 5.93249 5.43592C5.93249 5.69593 5.72713 5.90867 5.47614 5.90867ZM5.93249 4.08384V2.49538L7.49775 0.977838C7.5297 0.944745 7.58446 0.921107 7.65291 0.958928C7.71223 0.996748 7.73505 1.07712 7.69854 1.13857L5.99181 4.08857L5.93249 4.08384ZM8.86222 8.70738C8.83941 8.73102 8.7527 8.78302 8.67056 8.70738L6.46641 6.41452C6.50292 6.38143 6.53943 6.32943 6.57593 6.28215L7.84458 6.61781L8.88504 8.54665C8.91242 8.59865 8.89873 8.66483 8.86222 8.70738Z" fill="#2E3A59" fill-opacity="0.85"/>
</svg>
