<svg width="11" height="12" viewBox="0 0 11 12" fill="none" xmlns="http://www.w3.org/2000/svg">
<path id="coolicon" d="M5.37249 12C4.53062 11.2819 3.75028 10.4947 3.03964 9.64649C1.97319 8.37275 0.706788 6.47581 0.706788 4.66818C0.705842 2.78027 1.84272 1.07785 3.58691 0.355333C5.33109 -0.36718 7.3388 0.0326284 8.67315 1.36819C9.5506 2.24175 10.0421 3.43003 10.0382 4.66818C10.0382 6.47581 8.77179 8.37275 7.70534 9.64649C6.9947 10.4947 6.21436 11.2819 5.37249 12ZM5.37249 1.33553C3.53284 1.33774 2.04205 2.82852 2.03985 4.66818C2.03985 5.44535 2.39111 6.79107 4.06276 8.79133C4.47477 9.28326 4.91193 9.75357 5.37249 10.2004C5.83309 9.7541 6.27047 9.28447 6.68289 8.79333C8.35388 6.79041 8.70514 5.44469 8.70514 4.66818C8.70294 2.82852 7.21215 1.33774 5.37249 1.33553ZM5.37249 6.66777C4.26815 6.66777 3.37291 5.77252 3.37291 4.66818C3.37291 3.56384 4.26815 2.66859 5.37249 2.66859C6.47683 2.66859 7.37208 3.56384 7.37208 4.66818C7.37208 5.1985 7.16141 5.70711 6.78642 6.0821C6.41142 6.4571 5.90282 6.66777 5.37249 6.66777Z" fill="#2E3A59" fill-opacity="0.85"/>
</svg>
