<svg width="12" height="14" viewBox="0 0 12 14" fill="none" xmlns="http://www.w3.org/2000/svg">
<g id="Group 41">
<g id="Vector">
<path fill-rule="evenodd" clip-rule="evenodd" d="M2.64452 11.369C2.98301 10.9264 3.6909 10.943 4.04852 11.3254C4.53026 11.8404 5.2092 12.3459 6.28354 12.3459C7.37652 12.3459 8.04516 11.9403 8.50041 11.4318C8.8541 11.0363 9.6086 10.9726 9.97946 11.4418C10.2826 11.8256 10.6143 12.1309 11.2687 12.2604C11.3616 12.2811 11.4418 12.3332 11.4922 12.4056C11.5426 12.4781 11.5592 12.5651 11.5385 12.6483C11.5178 12.7315 11.4614 12.8042 11.3813 12.851C11.3013 12.8977 11.2038 12.9149 11.1097 12.8988C10.2066 12.7209 9.73663 12.2726 9.37705 11.8177C9.3535 11.7877 9.31082 11.7654 9.24656 11.7667C9.21403 11.7671 9.18197 11.7737 9.15259 11.7861C9.12321 11.7986 9.09719 11.8165 9.07633 11.8387C8.49943 12.4832 7.62769 13 6.28354 13C4.89867 13 4.03184 12.3319 3.48241 11.7432C3.46679 11.7266 3.44716 11.7134 3.425 11.7045C3.40283 11.6955 3.37869 11.6912 3.35437 11.6917C3.33451 11.691 3.31479 11.6949 3.29703 11.7028C3.27928 11.7107 3.26407 11.7225 3.25282 11.7371C2.88686 12.2155 2.41739 12.7095 1.45735 12.8988C1.40965 12.9094 1.36004 12.9115 1.31145 12.9047C1.26286 12.898 1.21627 12.8827 1.17444 12.8597C1.13262 12.8368 1.0964 12.8065 1.06793 12.7709C1.03946 12.7353 1.01932 12.6949 1.00869 12.6522C0.998066 12.6095 0.997173 12.5654 1.00607 12.5224C1.01496 12.4794 1.03345 12.4384 1.06046 12.4019C1.08747 12.3654 1.12244 12.334 1.16331 12.3097C1.20418 12.2854 1.25012 12.2686 1.29841 12.2604C1.99109 12.1234 2.32271 11.7894 2.64452 11.369Z" fill="#2E3A59" fill-opacity="0.85"/>
<path d="M3.48241 11.7432C4.03184 12.3319 4.89867 13 6.28354 13C7.62769 13 8.49943 12.4832 9.07633 11.8387C9.09719 11.8165 9.12321 11.7986 9.15259 11.7861C9.18197 11.7737 9.21403 11.7671 9.24656 11.7667C9.31082 11.7654 9.3535 11.7877 9.37705 11.8177C9.73663 12.2726 10.2066 12.7209 11.1097 12.8988C11.2038 12.9149 11.3013 12.8977 11.3813 12.851C11.4614 12.8042 11.5178 12.7315 11.5385 12.6483C11.5592 12.5651 11.5426 12.4781 11.4922 12.4056C11.4418 12.3332 11.3616 12.2811 11.2687 12.2604C10.6143 12.1309 10.2826 11.8256 9.97946 11.4418C9.6086 10.9726 8.8541 11.0363 8.50041 11.4318C8.04516 11.9403 7.37652 12.3459 6.28354 12.3459C5.2092 12.3459 4.53026 11.8404 4.04852 11.3254C3.6909 10.943 2.98301 10.9264 2.64452 11.369C2.32271 11.7894 1.99109 12.1234 1.29841 12.2604C1.25012 12.2686 1.20418 12.2854 1.16331 12.3097C1.12244 12.334 1.08747 12.3654 1.06046 12.4019C1.03345 12.4384 1.01496 12.4794 1.00607 12.5224C0.997173 12.5654 0.998066 12.6095 1.00869 12.6522C1.01932 12.6949 1.03946 12.7353 1.06793 12.7709C1.0964 12.8065 1.13262 12.8368 1.17444 12.8597C1.21627 12.8827 1.26286 12.898 1.31145 12.9047C1.36004 12.9115 1.40965 12.9094 1.45735 12.8988C2.41739 12.7095 2.88686 12.2155 3.25282 11.7371C3.26407 11.7225 3.27928 11.7107 3.29703 11.7028C3.31479 11.6949 3.33451 11.691 3.35437 11.6917C3.37869 11.6912 3.40283 11.6955 3.425 11.7045C3.44716 11.7134 3.46679 11.7266 3.48241 11.7432ZM3.48241 11.7432L3.76546 11.5339" stroke="#2E3A59" stroke-width="0.1"/>
</g>
<path id="Vector_2" d="M10.6791 8.26612L9.63862 6.28032C9.51262 6.05111 9.30579 5.88427 9.06362 5.81648L7.84518 5.49277C7.82692 5.26568 7.77216 5.04826 7.6672 4.85016L9.47433 1.66613C9.77096 1.14431 9.61124 0.467885 9.11838 0.15383C8.92384 0.0321395 8.69728 -0.0195107 8.47267 0.00662201C8.24806 0.0327547 8.0375 0.135262 7.87256 0.298778L6.3073 1.84973C6.12476 2.0285 6.0198 2.28457 6.0198 2.55031V4.19306C5.80532 4.2752 5.61365 4.41048 5.45849 4.58925H2.04047C1.45635 4.58925 1 5.07242 1 5.69086C1 6.18369 1.30575 6.6137 1.75297 6.74899L3.81109 7.37227C3.89323 7.39642 3.97993 7.41092 4.06208 7.41092C4.22636 7.41092 4.39065 7.3626 4.53211 7.2708L5.56345 6.62336C5.68667 6.74899 5.84182 6.85045 6.0198 6.91809V12.3272C5.51782 12.3272 5.10711 12.2232 5.10711 12.7547H7.84518C7.84518 12.2232 7.43447 12.3272 6.93249 12.3272V7.35294L9.03624 9.58031C9.2416 9.79774 9.50628 9.90403 9.77096 9.90403C10.0356 9.90403 10.3049 9.79774 10.5057 9.58031C10.8342 9.23244 10.9073 8.69613 10.6791 8.26612ZM4.06664 6.4446L2.00396 5.82132C1.9492 5.79716 1.91269 5.74884 1.91269 5.69086C1.91269 5.61839 1.97202 5.55558 2.04047 5.55558H5.10711C5.10711 5.62805 5.10711 5.70053 5.12536 5.76817L4.06664 6.4446ZM6.47614 6.03874C6.22515 6.03874 6.0198 5.82132 6.0198 5.55558C6.0198 5.28984 6.22515 5.07242 6.47614 5.07242C6.72713 5.07242 6.93249 5.28984 6.93249 5.55558C6.93249 5.82132 6.72713 6.03874 6.47614 6.03874ZM6.93249 4.17374V2.55031L8.49775 0.999363C8.5297 0.965541 8.58446 0.941383 8.65291 0.980036C8.71223 1.01869 8.73505 1.10083 8.69854 1.16364L6.99181 4.17857L6.93249 4.17374ZM9.86222 8.89906C9.83941 8.92321 9.7527 8.97636 9.67056 8.89906L7.46641 6.55572C7.50292 6.5219 7.53943 6.46875 7.57593 6.42044L8.84458 6.76348L9.88504 8.73478C9.91242 8.78793 9.89873 8.85557 9.86222 8.89906Z" fill="#2E3A59" fill-opacity="0.85"/>
</g>
</svg>
