<svg width="9" height="12" viewBox="0 0 9 12" fill="none" xmlns="http://www.w3.org/2000/svg">
<path id="coolicon" d="M6.05811 12H2.45811V10.8H6.05811V12ZM6.05811 10.2H2.45811L2.32431 9C2.25233 8.60308 2.13329 8.21615 1.96971 7.8474C1.75731 7.5474 1.53591 7.2912 1.32171 7.041C0.534574 6.30318 0.0788962 5.27867 0.0581055 4.2C0.0581055 1.8804 1.93851 0 4.25811 0C6.5777 0 8.45811 1.8804 8.45811 4.2C8.4337 5.27208 7.98151 6.28986 7.20231 7.0266L7.19211 7.0386C6.97851 7.2888 6.75771 7.548 6.54951 7.845C6.38607 8.21473 6.26665 8.60239 6.19371 9L6.05811 10.2ZM4.25811 1.2C2.60207 1.20198 1.26009 2.54397 1.25811 4.2C1.25811 5.1264 1.64451 5.5758 2.22891 6.2568C2.45091 6.516 2.70291 6.8088 2.94891 7.1514C3.24745 7.7315 3.45142 8.35556 3.55311 9H4.96371C5.06802 8.35742 5.27165 7.73498 5.56731 7.155C5.80731 6.8124 6.05871 6.5178 6.28011 6.2586L6.28911 6.2478C6.87231 5.5638 7.25811 5.112 7.25811 4.2C7.25612 2.54397 5.91414 1.20198 4.25811 1.2Z" fill="#2E3A59" fill-opacity="0.85"/>
</svg>
