<svg width="12" height="11" viewBox="0 0 12 11" fill="none" xmlns="http://www.w3.org/2000/svg">
<path id="Vector" d="M10.1987 8.655V9.5C10.1987 9.76522 10.0723 10.0196 9.8473 10.2071C9.62228 10.3946 9.3171 10.5 8.99888 10.5H2.99963C2.68141 10.5 2.37622 10.3946 2.1512 10.2071C1.92619 10.0196 1.79978 9.76522 1.79978 9.5V7.65C1.52381 7.56 1.16985 7.5 0.599925 7.5C0.440815 7.5 0.288222 7.44732 0.175714 7.35355C0.0632062 7.25979 0 7.13261 0 7C0 6.86739 0.0632062 6.74021 0.175714 6.64645C0.288222 6.55268 0.440815 6.5 0.599925 6.5C1.09186 6.5 1.48181 6.54 1.79978 6.605V5.65C1.52381 5.56 1.16985 5.5 0.599925 5.5C0.440815 5.5 0.288222 5.44732 0.175714 5.35355C0.0632062 5.25979 0 5.13261 0 5C0 4.86739 0.0632062 4.74021 0.175714 4.64645C0.288222 4.55268 0.440815 4.5 0.599925 4.5C1.09186 4.5 1.48181 4.54 1.79978 4.605V3.65C1.52381 3.56 1.16985 3.5 0.599925 3.5C0.440815 3.5 0.288222 3.44732 0.175714 3.35355C0.0632062 3.25979 0 3.13261 0 3C0 2.86739 0.0632062 2.74021 0.175714 2.64645C0.288222 2.55268 0.440815 2.5 0.599925 2.5C1.09186 2.5 1.48181 2.54 1.79978 2.605V1.5C1.79978 1.23478 1.92619 0.98043 2.1512 0.792893C2.37622 0.605357 2.68141 0.5 2.99963 0.5H8.99888C9.3171 0.5 9.62228 0.605357 9.8473 0.792893C10.0723 0.98043 10.1987 1.23478 10.1987 1.5V2.58C11.2666 2.735 11.7225 3.065 11.8245 3.145C12.0585 3.34 12.0585 3.66 11.8245 3.855C11.5906 4.05 11.2786 4.045 10.9726 3.855C10.9726 3.855 10.3487 3.5 8.99888 3.5C8.24297 3.5 7.74503 3.705 7.1691 3.95C6.54518 4.205 5.84327 4.5 4.7994 4.5C4.58343 4.5 4.38545 4.5 4.19948 4.48V3.475C4.37945 3.5 4.57743 3.5 4.7994 3.5C5.55531 3.5 6.05324 3.295 6.62917 3.055C7.25309 2.795 7.96101 2.5 8.99888 2.5V1.5H2.99963V9.5H8.99888V8.5C9.89876 8.5 10.1807 8.645 10.1987 8.655ZM8.99888 4.5C7.96101 4.5 7.25309 4.795 6.62917 5.055C6.05324 5.295 5.55531 5.5 4.7994 5.5C4.57743 5.5 4.37945 5.5 4.19948 5.475V6.48C4.38545 6.5 4.58343 6.5 4.7994 6.5C5.84327 6.5 6.54518 6.205 7.1691 5.95C7.74503 5.71 8.24297 5.5 8.99888 5.5C10.3487 5.5 10.9726 5.855 10.9726 5.855C11.2786 6.05 11.5906 6.05 11.8245 5.855C12.0585 5.66 12.0585 5.345 11.8245 5.145C11.6985 5.04 10.9486 4.5 8.99888 4.5ZM8.99888 6.5C7.96101 6.5 7.25309 6.795 6.62917 7.055C6.05324 7.295 5.55531 7.5 4.7994 7.5C4.57743 7.5 4.37945 7.5 4.19948 7.475V8.48C4.38545 8.5 4.58343 8.5 4.7994 8.5C5.84327 8.5 6.54518 8.205 7.1691 7.95C7.74503 7.71 8.24297 7.5 8.99888 7.5C10.3487 7.5 10.9726 7.855 10.9726 7.855C11.2786 8.05 11.5906 8.05 11.8245 7.855C12.0585 7.66 12.0585 7.345 11.8245 7.145C11.6985 7.04 10.9486 6.5 8.99888 6.5Z" fill="#2E3A59" fill-opacity="0.85"/>
</svg>
