<svg width="14" height="14" viewBox="0 0 14 14" fill="none" xmlns="http://www.w3.org/2000/svg">
<g id="Vector">
<mask id="path-1-inside-1_950_411" fill="white">
<path d="M5.90043 2.01667V1.15C5.90043 0.977609 5.9695 0.812279 6.09245 0.690381C6.2154 0.568482 6.38216 0.5 6.55604 0.5C6.72991 0.5 6.89667 0.568482 7.01962 0.690381C7.14257 0.812279 7.21164 0.977609 7.21164 1.15V2.01667C7.21164 2.18906 7.14257 2.35439 7.01962 2.47629C6.89667 2.59818 6.72991 2.66667 6.55604 2.66667C6.38216 2.66667 6.2154 2.59818 6.09245 2.47629C5.9695 2.35439 5.90043 2.18906 5.90043 2.01667ZM10.2711 7C10.2711 7.72849 10.0532 8.44063 9.64502 9.04635C9.2368 9.65207 8.65658 10.1242 7.97774 10.403C7.29889 10.6817 6.55191 10.7547 5.83126 10.6126C5.1106 10.4704 4.44864 10.1196 3.92907 9.60451C3.40951 9.08939 3.05568 8.43308 2.91233 7.71858C2.76899 7.00409 2.84256 6.26349 3.12374 5.59045C3.40493 4.91741 3.8811 4.34215 4.49204 3.93742C5.10299 3.53269 5.82126 3.31667 6.55604 3.31667C7.54103 3.31767 8.48538 3.70606 9.18188 4.3966C9.87837 5.08714 10.2701 6.02343 10.2711 7ZM8.95991 7C8.95991 6.52862 8.81893 6.06783 8.55479 5.67589C8.29065 5.28395 7.91521 4.97848 7.47596 4.79809C7.03671 4.6177 6.55337 4.5705 6.08706 4.66246C5.62075 4.75442 5.19242 4.98141 4.85624 5.31473C4.52005 5.64804 4.2911 6.07271 4.19835 6.53503C4.10559 6.99736 4.1532 7.47656 4.33514 7.91206C4.51708 8.34756 4.82519 8.71978 5.22051 8.98167C5.61583 9.24355 6.08059 9.38333 6.55604 9.38333C7.19336 9.38262 7.80438 9.13129 8.25504 8.68448C8.70569 8.23767 8.95919 7.63188 8.95991 7ZM2.37711 3.77654C2.43809 3.837 2.51049 3.88497 2.59017 3.91769C2.66985 3.95041 2.75525 3.96725 2.84149 3.96725C2.92774 3.96725 3.01314 3.95041 3.09282 3.91769C3.1725 3.88497 3.2449 3.837 3.30588 3.77654C3.36686 3.71608 3.41524 3.6443 3.44824 3.5653C3.48125 3.4863 3.49824 3.40163 3.49824 3.31613C3.49824 3.23062 3.48125 3.14595 3.44824 3.06695C3.41524 2.98795 3.36686 2.91617 3.30588 2.85571L2.65028 2.20571C2.52711 2.0836 2.36007 2.015 2.18589 2.015C2.01171 2.015 1.84467 2.0836 1.72151 2.20571C1.59834 2.32782 1.52915 2.49344 1.52915 2.66613C1.52915 2.83881 1.59834 3.00443 1.72151 3.12654L2.37711 3.77654ZM2.37711 10.2224L1.72151 10.8724C1.66052 10.9328 1.61215 11.0046 1.57914 11.0836C1.54614 11.1626 1.52915 11.2473 1.52915 11.3328C1.52915 11.4183 1.54614 11.503 1.57914 11.582C1.61215 11.661 1.66052 11.7327 1.72151 11.7932C1.84467 11.9153 2.01171 11.9839 2.18589 11.9839C2.27214 11.9839 2.35754 11.9671 2.43722 11.9344C2.51689 11.9016 2.58929 11.8537 2.65028 11.7932L3.30588 11.1432C3.42904 11.0211 3.49824 10.8555 3.49824 10.6828C3.49824 10.5101 3.42904 10.3445 3.30588 10.2224C3.18272 10.1003 3.01567 10.0317 2.84149 10.0317C2.66732 10.0317 2.50027 10.1003 2.37711 10.2224ZM10.2711 3.96667C10.3572 3.96673 10.4425 3.94998 10.5221 3.91736C10.6017 3.88473 10.674 3.83688 10.735 3.77654L11.3906 3.12654C11.4515 3.06608 11.4999 2.9943 11.5329 2.9153C11.5659 2.8363 11.5829 2.75163 11.5829 2.66613C11.5829 2.58062 11.5659 2.49595 11.5329 2.41695C11.4999 2.33795 11.4515 2.26617 11.3906 2.20571C11.3296 2.14525 11.2572 2.09728 11.1775 2.06456C11.0978 2.03184 11.0124 2.015 10.9262 2.015C10.8399 2.015 10.7545 2.03184 10.6749 2.06456C10.5952 2.09728 10.5228 2.14525 10.4618 2.20571L9.80619 2.85571C9.71395 2.94662 9.65108 3.06268 9.62555 3.18912C9.60003 3.31556 9.61302 3.44667 9.66286 3.56578C9.71271 3.68488 9.79716 3.7866 9.90547 3.85798C10.0138 3.92937 10.1411 3.9672 10.2711 3.96667ZM10.735 10.2235C10.6118 10.1013 10.4448 10.0327 10.2706 10.0327C10.0964 10.0327 9.92935 10.1013 9.80619 10.2235C9.68303 10.3456 9.61383 10.5112 9.61383 10.6839C9.61383 10.8566 9.68303 11.0222 9.80619 11.1443L10.4618 11.7943C10.585 11.9164 10.752 11.985 10.9262 11.985C11.1004 11.985 11.2674 11.9164 11.3906 11.7943C11.5137 11.6722 11.5829 11.5066 11.5829 11.3339C11.5829 11.1612 11.5137 10.9956 11.3906 10.8735L10.735 10.2235ZM2.18534 7C2.18534 6.82761 2.11627 6.66228 1.99332 6.54038C1.87037 6.41848 1.70362 6.35 1.52974 6.35H0.655604C0.481727 6.35 0.314971 6.41848 0.192022 6.54038C0.0690723 6.66228 0 6.82761 0 7C0 7.17239 0.0690723 7.33772 0.192022 7.45962C0.314971 7.58152 0.481727 7.65 0.655604 7.65H1.52974C1.70362 7.65 1.87037 7.58152 1.99332 7.45962C2.11627 7.33772 2.18534 7.17239 2.18534 7ZM6.55604 11.3333C6.38216 11.3333 6.2154 11.4018 6.09245 11.5237C5.9695 11.6456 5.90043 11.8109 5.90043 11.9833V12.85C5.90043 13.0224 5.9695 13.1877 6.09245 13.3096C6.2154 13.4315 6.38216 13.5 6.55604 13.5C6.72991 13.5 6.89667 13.4315 7.01962 13.3096C7.14257 13.1877 7.21164 13.0224 7.21164 12.85V11.9833C7.21164 11.8109 7.14257 11.6456 7.01962 11.5237C6.89667 11.4018 6.72991 11.3333 6.55604 11.3333ZM12.4565 6.35H11.5823C11.4085 6.35 11.2417 6.41848 11.1187 6.54038C10.9958 6.66228 10.9267 6.82761 10.9267 7C10.9267 7.17239 10.9958 7.33772 11.1187 7.45962C11.2417 7.58152 11.4085 7.65 11.5823 7.65H12.4565C12.6303 7.65 12.7971 7.58152 12.92 7.45962C13.043 7.33772 13.1121 7.17239 13.1121 7C13.1121 6.82761 13.043 6.66228 12.92 6.54038C12.7971 6.41848 12.6303 6.35 12.4565 6.35Z"/>
</mask>
<path d="M5.90043 2.01667V1.15C5.90043 0.977609 5.9695 0.812279 6.09245 0.690381C6.2154 0.568482 6.38216 0.5 6.55604 0.5C6.72991 0.5 6.89667 0.568482 7.01962 0.690381C7.14257 0.812279 7.21164 0.977609 7.21164 1.15V2.01667C7.21164 2.18906 7.14257 2.35439 7.01962 2.47629C6.89667 2.59818 6.72991 2.66667 6.55604 2.66667C6.38216 2.66667 6.2154 2.59818 6.09245 2.47629C5.9695 2.35439 5.90043 2.18906 5.90043 2.01667ZM10.2711 7C10.2711 7.72849 10.0532 8.44063 9.64502 9.04635C9.2368 9.65207 8.65658 10.1242 7.97774 10.403C7.29889 10.6817 6.55191 10.7547 5.83126 10.6126C5.1106 10.4704 4.44864 10.1196 3.92907 9.60451C3.40951 9.08939 3.05568 8.43308 2.91233 7.71858C2.76899 7.00409 2.84256 6.26349 3.12374 5.59045C3.40493 4.91741 3.8811 4.34215 4.49204 3.93742C5.10299 3.53269 5.82126 3.31667 6.55604 3.31667C7.54103 3.31767 8.48538 3.70606 9.18188 4.3966C9.87837 5.08714 10.2701 6.02343 10.2711 7ZM8.95991 7C8.95991 6.52862 8.81893 6.06783 8.55479 5.67589C8.29065 5.28395 7.91521 4.97848 7.47596 4.79809C7.03671 4.6177 6.55337 4.5705 6.08706 4.66246C5.62075 4.75442 5.19242 4.98141 4.85624 5.31473C4.52005 5.64804 4.2911 6.07271 4.19835 6.53503C4.10559 6.99736 4.1532 7.47656 4.33514 7.91206C4.51708 8.34756 4.82519 8.71978 5.22051 8.98167C5.61583 9.24355 6.08059 9.38333 6.55604 9.38333C7.19336 9.38262 7.80438 9.13129 8.25504 8.68448C8.70569 8.23767 8.95919 7.63188 8.95991 7ZM2.37711 3.77654C2.43809 3.837 2.51049 3.88497 2.59017 3.91769C2.66985 3.95041 2.75525 3.96725 2.84149 3.96725C2.92774 3.96725 3.01314 3.95041 3.09282 3.91769C3.1725 3.88497 3.2449 3.837 3.30588 3.77654C3.36686 3.71608 3.41524 3.6443 3.44824 3.5653C3.48125 3.4863 3.49824 3.40163 3.49824 3.31613C3.49824 3.23062 3.48125 3.14595 3.44824 3.06695C3.41524 2.98795 3.36686 2.91617 3.30588 2.85571L2.65028 2.20571C2.52711 2.0836 2.36007 2.015 2.18589 2.015C2.01171 2.015 1.84467 2.0836 1.72151 2.20571C1.59834 2.32782 1.52915 2.49344 1.52915 2.66613C1.52915 2.83881 1.59834 3.00443 1.72151 3.12654L2.37711 3.77654ZM2.37711 10.2224L1.72151 10.8724C1.66052 10.9328 1.61215 11.0046 1.57914 11.0836C1.54614 11.1626 1.52915 11.2473 1.52915 11.3328C1.52915 11.4183 1.54614 11.503 1.57914 11.582C1.61215 11.661 1.66052 11.7327 1.72151 11.7932C1.84467 11.9153 2.01171 11.9839 2.18589 11.9839C2.27214 11.9839 2.35754 11.9671 2.43722 11.9344C2.51689 11.9016 2.58929 11.8537 2.65028 11.7932L3.30588 11.1432C3.42904 11.0211 3.49824 10.8555 3.49824 10.6828C3.49824 10.5101 3.42904 10.3445 3.30588 10.2224C3.18272 10.1003 3.01567 10.0317 2.84149 10.0317C2.66732 10.0317 2.50027 10.1003 2.37711 10.2224ZM10.2711 3.96667C10.3572 3.96673 10.4425 3.94998 10.5221 3.91736C10.6017 3.88473 10.674 3.83688 10.735 3.77654L11.3906 3.12654C11.4515 3.06608 11.4999 2.9943 11.5329 2.9153C11.5659 2.8363 11.5829 2.75163 11.5829 2.66613C11.5829 2.58062 11.5659 2.49595 11.5329 2.41695C11.4999 2.33795 11.4515 2.26617 11.3906 2.20571C11.3296 2.14525 11.2572 2.09728 11.1775 2.06456C11.0978 2.03184 11.0124 2.015 10.9262 2.015C10.8399 2.015 10.7545 2.03184 10.6749 2.06456C10.5952 2.09728 10.5228 2.14525 10.4618 2.20571L9.80619 2.85571C9.71395 2.94662 9.65108 3.06268 9.62555 3.18912C9.60003 3.31556 9.61302 3.44667 9.66286 3.56578C9.71271 3.68488 9.79716 3.7866 9.90547 3.85798C10.0138 3.92937 10.1411 3.9672 10.2711 3.96667ZM10.735 10.2235C10.6118 10.1013 10.4448 10.0327 10.2706 10.0327C10.0964 10.0327 9.92935 10.1013 9.80619 10.2235C9.68303 10.3456 9.61383 10.5112 9.61383 10.6839C9.61383 10.8566 9.68303 11.0222 9.80619 11.1443L10.4618 11.7943C10.585 11.9164 10.752 11.985 10.9262 11.985C11.1004 11.985 11.2674 11.9164 11.3906 11.7943C11.5137 11.6722 11.5829 11.5066 11.5829 11.3339C11.5829 11.1612 11.5137 10.9956 11.3906 10.8735L10.735 10.2235ZM2.18534 7C2.18534 6.82761 2.11627 6.66228 1.99332 6.54038C1.87037 6.41848 1.70362 6.35 1.52974 6.35H0.655604C0.481727 6.35 0.314971 6.41848 0.192022 6.54038C0.0690723 6.66228 0 6.82761 0 7C0 7.17239 0.0690723 7.33772 0.192022 7.45962C0.314971 7.58152 0.481727 7.65 0.655604 7.65H1.52974C1.70362 7.65 1.87037 7.58152 1.99332 7.45962C2.11627 7.33772 2.18534 7.17239 2.18534 7ZM6.55604 11.3333C6.38216 11.3333 6.2154 11.4018 6.09245 11.5237C5.9695 11.6456 5.90043 11.8109 5.90043 11.9833V12.85C5.90043 13.0224 5.9695 13.1877 6.09245 13.3096C6.2154 13.4315 6.38216 13.5 6.55604 13.5C6.72991 13.5 6.89667 13.4315 7.01962 13.3096C7.14257 13.1877 7.21164 13.0224 7.21164 12.85V11.9833C7.21164 11.8109 7.14257 11.6456 7.01962 11.5237C6.89667 11.4018 6.72991 11.3333 6.55604 11.3333ZM12.4565 6.35H11.5823C11.4085 6.35 11.2417 6.41848 11.1187 6.54038C10.9958 6.66228 10.9267 6.82761 10.9267 7C10.9267 7.17239 10.9958 7.33772 11.1187 7.45962C11.2417 7.58152 11.4085 7.65 11.5823 7.65H12.4565C12.6303 7.65 12.7971 7.58152 12.92 7.45962C13.043 7.33772 13.1121 7.17239 13.1121 7C13.1121 6.82761 13.043 6.66228 12.92 6.54038C12.7971 6.41848 12.6303 6.35 12.4565 6.35Z" fill="#2E3A59" fill-opacity="0.85" stroke="white" stroke-width="0.1" mask="url(#path-1-inside-1_950_411)"/>
</g>
</svg>
