<svg width="12" height="12" viewBox="0 0 12 12" fill="none" xmlns="http://www.w3.org/2000/svg">
<path id="coolicon" d="M6 12C2.68629 12 0 9.31371 0 6C0 2.68629 2.68629 0 6 0C9.31371 0 12 2.68629 12 6C11.9964 9.3122 9.3122 11.9964 6 12ZM5.9904 10.8H6C8.65003 10.7973 10.7965 8.64763 10.7952 5.9976C10.7939 3.34757 8.64523 1.2 5.9952 1.2C3.34517 1.2 1.19653 3.34757 1.1952 5.9976C1.19388 8.64763 3.34037 10.7973 5.9904 10.8ZM4.8 9L2.4 6.6L3.246 5.754L4.8 7.302L8.754 3.348L9.6 4.2L4.8 9Z" fill="#2E3A59" fill-opacity="0.85"/>
</svg>
