<svg width="50" height="55" viewBox="0 0 50 55" fill="none" xmlns="http://www.w3.org/2000/svg">
<g filter="url(#filter0_dd_704_107)">
<mask id="path-1-outside-1_704_107" maskUnits="userSpaceOnUse" x="5" y="7" width="40" height="45" fill="black">
<rect fill="white" x="5" y="7" width="40" height="45"/>
<path fill-rule="evenodd" clip-rule="evenodd" d="M34.6194 43.1395C39.6562 39.8601 43 34.0814 43 27.5C43 17.2827 34.9411 9 25 9C15.0589 9 7 17.2827 7 27.5C7 34.0814 10.3438 39.8601 15.3806 43.1395L23.8387 49.1718C24.5336 49.6674 25.4664 49.6674 26.1613 49.1718L34.6194 43.1395Z"/>
</mask>
<path fill-rule="evenodd" clip-rule="evenodd" d="M34.6194 43.1395C39.6562 39.8601 43 34.0814 43 27.5C43 17.2827 34.9411 9 25 9C15.0589 9 7 17.2827 7 27.5C7 34.0814 10.3438 39.8601 15.3806 43.1395L23.8387 49.1718C24.5336 49.6674 25.4664 49.6674 26.1613 49.1718L34.6194 43.1395Z" fill="white"/>
<path d="M34.6194 43.1395L33.5282 41.4634L33.4926 41.4865L33.4581 41.5112L34.6194 43.1395ZM15.3806 43.1395L16.5419 41.5112L16.5074 41.4866L16.4719 41.4634L15.3806 43.1395ZM23.8387 49.1718L22.6774 50.8001H22.6774L23.8387 49.1718ZM26.1613 49.1718L27.3226 50.8001L26.1613 49.1718ZM41 27.5C41 33.3928 38.0083 38.5464 33.5282 41.4634L35.7107 44.8155C41.3041 41.1738 45 34.7699 45 27.5H41ZM25 11C33.7853 11 41 18.3353 41 27.5H45C45 16.2302 36.097 7 25 7V11ZM9 27.5C9 18.3353 16.2147 11 25 11V7C13.903 7 5 16.2302 5 27.5H9ZM16.4719 41.4634C11.9917 38.5465 9 33.3929 9 27.5H5C5 34.77 8.69597 41.1738 14.2894 44.8155L16.4719 41.4634ZM25 47.5435L16.5419 41.5112L14.2193 44.7678L22.6774 50.8001L25 47.5435ZM25 47.5435H25L22.6774 50.8001C24.0672 51.7913 25.9328 51.7913 27.3226 50.8001L25 47.5435ZM33.4581 41.5112L25 47.5435L27.3226 50.8001L35.7807 44.7678L33.4581 41.5112Z" fill="#4896BC" mask="url(#path-1-outside-1_704_107)"/>
</g>
<path d="M39.5 27.5C39.5 35.7999 32.9928 42.5 25 42.5C17.0072 42.5 10.5 35.7999 10.5 27.5C10.5 19.2001 17.0072 12.5 25 12.5C32.9928 12.5 39.5 19.2001 39.5 27.5Z" fill="#4896BC" stroke="#4896BC"/>
<path fill-rule="evenodd" clip-rule="evenodd" d="M25 46C34.9411 46 43 37.7173 43 27.5C43 17.2827 34.9411 9 25 9C15.0589 9 7 17.2827 7 27.5C7 37.7173 15.0589 46 25 46ZM25 43C33.2843 43 40 36.0604 40 27.5C40 18.9396 33.2843 12 25 12C16.7157 12 10 18.9396 10 27.5C10 36.0604 16.7157 43 25 43Z" fill="white"/>
<path d="M19.3333 30.5752C19.0924 30.5752 18.8614 30.4795 18.691 30.3091C18.5207 30.1388 18.425 29.9077 18.425 29.6668V25.3335C18.425 25.0926 18.5207 24.8615 18.691 24.6912C18.8614 24.5209 19.0924 24.4252 19.3333 24.4252H25.6583V30.5752H19.3333Z" fill="white" stroke="#4896BC" stroke-width="0.35"/>
<path d="M34.0357 30.575H33.8607V30.75C33.8607 31.5655 33.5367 32.3477 32.9601 32.9244C32.3834 33.501 31.6013 33.825 30.7857 33.825H18.25C17.4345 33.825 16.6523 33.501 16.0756 32.9244C15.499 32.3477 15.175 31.5655 15.175 30.75V24.25C15.175 23.4345 15.499 22.6523 16.0756 22.0756C16.6523 21.499 17.4345 21.175 18.25 21.175H30.7857C31.6013 21.175 32.3834 21.499 32.9601 22.0756C33.5367 22.6523 33.8607 23.4345 33.8607 24.25V24.425H34.0357C34.2766 24.425 34.5077 24.5207 34.678 24.691C34.8484 24.8614 34.944 25.0924 34.944 25.3333V29.6667C34.944 29.9076 34.8484 30.1386 34.678 30.309C34.5077 30.4793 34.2766 30.575 34.0357 30.575ZM31.6755 23.3602L31.5517 23.484L31.6755 23.3602C31.4395 23.1242 31.1194 22.9917 30.7857 22.9917H18.25C17.9163 22.9917 17.5962 23.1242 17.3602 23.3602C17.1242 23.5962 16.9917 23.9163 16.9917 24.25V30.75C16.9917 31.0837 17.1242 31.4038 17.3602 31.6398C17.5962 31.8758 17.9163 32.0083 18.25 32.0083H30.7857C31.1194 32.0083 31.4395 31.8758 31.6755 31.6398C31.9115 31.4038 32.044 31.0837 32.044 30.75V24.25C32.044 23.9163 31.9115 23.5962 31.6755 23.3602Z" fill="white" stroke="#4896BC" stroke-width="0.35"/>
<defs>
<filter id="filter0_dd_704_107" x="0" y="0" width="50" height="54.5435" filterUnits="userSpaceOnUse" color-interpolation-filters="sRGB">
<feFlood flood-opacity="0" result="BackgroundImageFix"/>
<feColorMatrix in="SourceAlpha" type="matrix" values="0 0 0 0 0 0 0 0 0 0 0 0 0 0 0 0 0 0 127 0" result="hardAlpha"/>
<feOffset dy="2"/>
<feGaussianBlur stdDeviation="0.5"/>
<feComposite in2="hardAlpha" operator="out"/>
<feColorMatrix type="matrix" values="0 0 0 0 0 0 0 0 0 0 0 0 0 0 0 0 0 0 0.25 0"/>
<feBlend mode="normal" in2="BackgroundImageFix" result="effect1_dropShadow_704_107"/>
<feColorMatrix in="SourceAlpha" type="matrix" values="0 0 0 0 0 0 0 0 0 0 0 0 0 0 0 0 0 0 127 0" result="hardAlpha"/>
<feOffset dy="-2"/>
<feGaussianBlur stdDeviation="2.5"/>
<feComposite in2="hardAlpha" operator="out"/>
<feColorMatrix type="matrix" values="0 0 0 0 1 0 0 0 0 1 0 0 0 0 1 0 0 0 0.85 0"/>
<feBlend mode="normal" in2="effect1_dropShadow_704_107" result="effect2_dropShadow_704_107"/>
<feBlend mode="normal" in="SourceGraphic" in2="effect2_dropShadow_704_107" result="shape"/>
</filter>
</defs>
</svg>
