<svg width="50" height="55" viewBox="0 0 50 55" fill="none" xmlns="http://www.w3.org/2000/svg">
<g filter="url(#filter0_dd_1211_1283)">
<mask id="path-1-outside-1_1211_1283" maskUnits="userSpaceOnUse" x="5" y="7" width="40" height="45" fill="black">
<rect fill="white" x="5" y="7" width="40" height="45"/>
<path fill-rule="evenodd" clip-rule="evenodd" d="M34.6194 43.1395C39.6562 39.8601 43 34.0814 43 27.5C43 17.2827 34.9411 9 25 9C15.0589 9 7 17.2827 7 27.5C7 34.0814 10.3438 39.8601 15.3806 43.1395L23.8387 49.1718C24.5336 49.6674 25.4664 49.6674 26.1613 49.1718L34.6194 43.1395Z"/>
</mask>
<path fill-rule="evenodd" clip-rule="evenodd" d="M34.6194 43.1395C39.6562 39.8601 43 34.0814 43 27.5C43 17.2827 34.9411 9 25 9C15.0589 9 7 17.2827 7 27.5C7 34.0814 10.3438 39.8601 15.3806 43.1395L23.8387 49.1718C24.5336 49.6674 25.4664 49.6674 26.1613 49.1718L34.6194 43.1395Z" fill="white"/>
<path d="M34.6194 43.1395L33.5282 41.4634L33.4926 41.4865L33.4581 41.5112L34.6194 43.1395ZM15.3806 43.1395L16.5419 41.5112L16.5074 41.4866L16.4719 41.4634L15.3806 43.1395ZM23.8387 49.1718L22.6774 50.8001H22.6774L23.8387 49.1718ZM26.1613 49.1718L27.3226 50.8001L26.1613 49.1718ZM41 27.5C41 33.3928 38.0083 38.5464 33.5282 41.4634L35.7107 44.8155C41.3041 41.1738 45 34.7699 45 27.5H41ZM25 11C33.7853 11 41 18.3353 41 27.5H45C45 16.2302 36.097 7 25 7V11ZM9 27.5C9 18.3353 16.2147 11 25 11V7C13.903 7 5 16.2302 5 27.5H9ZM16.4719 41.4634C11.9917 38.5465 9 33.3929 9 27.5H5C5 34.77 8.69597 41.1738 14.2894 44.8155L16.4719 41.4634ZM25 47.5435L16.5419 41.5112L14.2193 44.7678L22.6774 50.8001L25 47.5435ZM25 47.5435H25L22.6774 50.8001C24.0672 51.7913 25.9328 51.7913 27.3226 50.8001L25 47.5435ZM33.4581 41.5112L25 47.5435L27.3226 50.8001L35.7807 44.7678L33.4581 41.5112Z" fill="#4D8B31" mask="url(#path-1-outside-1_1211_1283)"/>
</g>
<ellipse cx="25" cy="27.5" rx="15" ry="15.5" fill="#4D8B31"/>
<path fill-rule="evenodd" clip-rule="evenodd" d="M25 46C34.9411 46 43 37.7173 43 27.5C43 17.2827 34.9411 9 25 9C15.0589 9 7 17.2827 7 27.5C7 37.7173 15.0589 46 25 46ZM25 43C33.2843 43 40 36.0604 40 27.5C40 18.9396 33.2843 12 25 12C16.7157 12 10 18.9396 10 27.5C10 36.0604 16.7157 43 25 43Z" fill="white"/>
<path d="M30.31 31.851C30.076 31.131 29.401 30.6 28.6 30.6H27.7V27.9C27.7 27.6613 27.6052 27.4324 27.4364 27.2636C27.2676 27.0948 27.0387 27 26.8 27H21.4V25.2H23.2C23.4387 25.2 23.6676 25.1052 23.8364 24.9364C24.0052 24.7676 24.1 24.5387 24.1 24.3V22.5H25.9C26.3774 22.5 26.8352 22.3104 27.1728 21.9728C27.5104 21.6352 27.7 21.1774 27.7 20.7V20.331C28.7768 20.7651 29.7324 21.4537 30.485 22.3379C31.2375 23.222 31.7647 24.2753 32.0212 25.4076C32.2778 26.54 32.2561 27.7176 31.9581 28.8398C31.6601 29.9619 31.0946 30.9951 30.31 31.851ZM24.1 34.137C20.545 33.696 17.8 30.672 17.8 27C17.8 26.442 17.872 25.902 17.989 25.389L22.3 29.7V30.6C22.3 31.0774 22.4896 31.5352 22.8272 31.8728C23.1648 32.2104 23.6226 32.4 24.1 32.4M25 18C23.8181 18 22.6478 18.2328 21.5558 18.6851C20.4639 19.1374 19.4718 19.8003 18.636 20.636C16.9482 22.3239 16 24.6131 16 27C16 29.3869 16.9482 31.6761 18.636 33.364C19.4718 34.1997 20.4639 34.8626 21.5558 35.3149C22.6478 35.7672 23.8181 36 25 36C27.3869 36 29.6761 35.0518 31.364 33.364C33.0518 31.6761 34 29.3869 34 27C34 25.8181 33.7672 24.6478 33.3149 23.5558C32.8626 22.4639 32.1997 21.4718 31.364 20.636C30.5282 19.8003 29.5361 19.1374 28.4442 18.6851C27.3522 18.2328 26.1819 18 25 18Z" fill="white"/>
<defs>
<filter id="filter0_dd_1211_1283" x="0" y="0" width="50" height="54.5435" filterUnits="userSpaceOnUse" color-interpolation-filters="sRGB">
<feFlood flood-opacity="0" result="BackgroundImageFix"/>
<feColorMatrix in="SourceAlpha" type="matrix" values="0 0 0 0 0 0 0 0 0 0 0 0 0 0 0 0 0 0 127 0" result="hardAlpha"/>
<feOffset dy="2"/>
<feGaussianBlur stdDeviation="0.5"/>
<feComposite in2="hardAlpha" operator="out"/>
<feColorMatrix type="matrix" values="0 0 0 0 0 0 0 0 0 0 0 0 0 0 0 0 0 0 0.25 0"/>
<feBlend mode="normal" in2="BackgroundImageFix" result="effect1_dropShadow_1211_1283"/>
<feColorMatrix in="SourceAlpha" type="matrix" values="0 0 0 0 0 0 0 0 0 0 0 0 0 0 0 0 0 0 127 0" result="hardAlpha"/>
<feOffset dy="-2"/>
<feGaussianBlur stdDeviation="2.5"/>
<feComposite in2="hardAlpha" operator="out"/>
<feColorMatrix type="matrix" values="0 0 0 0 1 0 0 0 0 1 0 0 0 0 1 0 0 0 0.85 0"/>
<feBlend mode="normal" in2="effect1_dropShadow_1211_1283" result="effect2_dropShadow_1211_1283"/>
<feBlend mode="normal" in="SourceGraphic" in2="effect2_dropShadow_1211_1283" result="shape"/>
</filter>
</defs>
</svg>
