<svg width="50" height="55" viewBox="0 0 50 55" fill="none" xmlns="http://www.w3.org/2000/svg">
<g filter="url(#filter0_dd_648_86)">
<mask id="path-1-outside-1_648_86" maskUnits="userSpaceOnUse" x="5" y="7" width="40" height="45" fill="black">
<rect fill="white" x="5" y="7" width="40" height="45"/>
<path fill-rule="evenodd" clip-rule="evenodd" d="M34.6194 43.1395C39.6562 39.8601 43 34.0814 43 27.5C43 17.2827 34.9411 9 25 9C15.0589 9 7 17.2827 7 27.5C7 34.0814 10.3438 39.8601 15.3806 43.1395L23.8387 49.1718C24.5336 49.6674 25.4664 49.6674 26.1613 49.1718L34.6194 43.1395Z"/>
</mask>
<path fill-rule="evenodd" clip-rule="evenodd" d="M34.6194 43.1395C39.6562 39.8601 43 34.0814 43 27.5C43 17.2827 34.9411 9 25 9C15.0589 9 7 17.2827 7 27.5C7 34.0814 10.3438 39.8601 15.3806 43.1395L23.8387 49.1718C24.5336 49.6674 25.4664 49.6674 26.1613 49.1718L34.6194 43.1395Z" fill="white"/>
<path d="M34.6194 43.1395L33.5282 41.4634L33.4926 41.4865L33.4581 41.5112L34.6194 43.1395ZM15.3806 43.1395L16.5419 41.5112L16.5074 41.4866L16.4719 41.4634L15.3806 43.1395ZM23.8387 49.1718L22.6774 50.8001H22.6774L23.8387 49.1718ZM26.1613 49.1718L27.3226 50.8001L26.1613 49.1718ZM41 27.5C41 33.3928 38.0083 38.5464 33.5282 41.4634L35.7107 44.8155C41.3041 41.1738 45 34.7699 45 27.5H41ZM25 11C33.7853 11 41 18.3353 41 27.5H45C45 16.2302 36.097 7 25 7V11ZM9 27.5C9 18.3353 16.2147 11 25 11V7C13.903 7 5 16.2302 5 27.5H9ZM16.4719 41.4634C11.9917 38.5465 9 33.3929 9 27.5H5C5 34.77 8.69597 41.1738 14.2894 44.8155L16.4719 41.4634ZM25 47.5435L16.5419 41.5112L14.2193 44.7678L22.6774 50.8001L25 47.5435ZM25 47.5435H25L22.6774 50.8001C24.0672 51.7913 25.9328 51.7913 27.3226 50.8001L25 47.5435ZM33.4581 41.5112L25 47.5435L27.3226 50.8001L35.7807 44.7678L33.4581 41.5112Z" fill="#4D8B31" mask="url(#path-1-outside-1_648_86)"/>
</g>
<ellipse cx="25" cy="27.5" rx="15" ry="15.5" fill="#4D8B31"/>
<path fill-rule="evenodd" clip-rule="evenodd" d="M25 46C34.9411 46 43 37.7173 43 27.5C43 17.2827 34.9411 9 25 9C15.0589 9 7 17.2827 7 27.5C7 37.7173 15.0589 46 25 46ZM25 43C33.2843 43 40 36.0604 40 27.5C40 18.9396 33.2843 12 25 12C16.7157 12 10 18.9396 10 27.5C10 36.0604 16.7157 43 25 43Z" fill="white"/>
<path d="M22.0278 21.1928L22.0277 21.1932C22.0082 21.3021 22.0117 21.4135 22.038 21.5213C22.0644 21.6291 22.1132 21.7314 22.1822 21.8224C22.2513 21.9135 22.3391 21.9914 22.4413 22.0514C22.5434 22.1114 22.6575 22.1522 22.7772 22.171L22.7783 22.1712C22.8286 22.1795 22.8796 22.1836 22.9307 22.1834L22.9311 22.1834C23.1496 22.1831 23.3597 22.1102 23.5244 21.9794C23.6889 21.8487 23.7969 21.6692 23.8322 21.4737C23.8322 21.4736 23.8322 21.4735 23.8322 21.4735L23.9798 21.5C24.1031 20.7998 24.4877 20.1637 25.0647 19.7057C25.6418 19.2476 26.3736 18.9974 27.129 19L22.0278 21.1928ZM22.0278 21.1928C22.2273 20.0636 22.8483 19.0358 23.7823 18.2943C24.7166 17.5527 25.9027 17.1464 27.1286 17.15H27.129C27.3745 17.15 27.6082 17.2417 27.7791 17.4022C27.9496 17.5625 28.0435 17.7777 28.0435 18C28.0435 18.2223 27.9496 18.4376 27.7791 18.5978C27.6082 18.7583 27.3747 18.85 27.1293 18.85L22.0278 21.1928ZM30.1896 25.2639C30.3688 28.9781 32.1995 32.5341 33.1001 34.0757L33.1435 34.15H33.2296H34.9355C35.1809 34.15 35.4146 34.2417 35.5855 34.4022C35.7561 34.5625 35.85 34.7777 35.85 35C35.85 35.2223 35.7561 35.4375 35.5855 35.5978C35.4146 35.7583 35.1809 35.85 34.9355 35.85H15.0645C14.8191 35.85 14.5854 35.7583 14.4145 35.5978C14.2439 35.4375 14.15 35.2223 14.15 35C14.15 34.7777 14.2439 34.5625 14.4145 34.4022C14.5854 34.2417 14.8191 34.15 15.0645 34.15H16.4972H16.5899L16.6313 34.0671C17.7422 31.847 18.9701 28.6685 19.1061 25.2719L19.1061 25.2715C19.1207 24.8828 19.2958 24.5125 19.5978 24.2401C19.9001 23.9674 20.3053 23.8146 20.7279 23.8167H20.7286H28.5652H28.5654C28.9863 23.8163 29.3896 23.9684 29.6917 24.2391C29.9934 24.5095 30.1706 24.8769 30.1896 25.2639ZM30.1896 25.2639L30.3394 25.2567M30.1896 25.2639C30.1896 25.2639 30.1896 25.264 30.1896 25.264L30.3394 25.2567M30.3394 25.2567C30.3184 24.8281 30.1223 24.4236 29.7918 24.1274C29.4613 23.8313 29.022 23.6662 28.5652 23.6667M30.3394 25.2567C30.5169 28.9333 32.3319 32.4633 33.2296 34H34.9355C35.2178 34 35.4886 34.1054 35.6882 34.2929C35.8878 34.4804 36 34.7348 36 35C36 35.2652 35.8878 35.5196 35.6882 35.7071C35.4886 35.8946 35.2178 36 34.9355 36H15.0645C14.7822 36 14.5114 35.8946 14.3118 35.7071C14.1122 35.5196 14 35.2652 14 35C14 34.7348 14.1122 34.4804 14.3118 34.2929C14.5114 34.1054 14.7822 34 15.0645 34H16.4972C17.6034 31.7892 18.8214 28.6325 18.9562 25.2658L28.5652 23.6667M28.5652 23.6667H20.7286H28.5652ZM28.3787 25.6562L28.3689 25.5167H28.229H26.8097H26.6496L26.66 25.6764C26.8712 28.9201 28.0451 31.9355 29.1124 34.0672L29.1539 34.15H29.2465H30.8238H31.0735L30.9562 33.9296C29.92 31.981 28.6072 28.931 28.3787 25.6562ZM18.6967 33.9371L18.5984 34.15H18.8329H26.9055H27.14L27.0417 33.9371C26.0119 31.707 25.0037 28.7869 24.8206 25.6579L24.8124 25.5167H24.6709H21.0675H20.926L20.9178 25.6579C20.7347 28.7869 19.7265 31.707 18.6967 33.9371ZM26.1242 20.7356C26.2951 20.575 26.5287 20.4834 26.7742 20.4834H27.129C27.8247 20.4834 28.4935 20.2239 28.9881 19.7593C29.483 19.2944 29.7629 18.6618 29.7629 18C29.7629 17.7777 29.8568 17.5625 30.0274 17.4022C30.1983 17.2417 30.432 17.15 30.6774 17.15C30.9229 17.15 31.1566 17.2417 31.3274 17.4022C31.498 17.5624 31.5919 17.7776 31.5919 17.9998C31.5906 19.1059 31.1224 20.1683 30.2866 20.9534C29.4505 21.7388 28.315 22.1821 27.1289 22.1834H26.7742C26.5287 22.1834 26.2951 22.0917 26.1242 21.9311C25.9536 21.7709 25.8597 21.5557 25.8597 21.3334C25.8597 21.1111 25.9536 20.8958 26.1242 20.7356Z" fill="white" stroke="#4D8B31" stroke-width="0.3"/>
<defs>
<filter id="filter0_dd_648_86" x="0" y="0" width="50" height="54.5435" filterUnits="userSpaceOnUse" color-interpolation-filters="sRGB">
<feFlood flood-opacity="0" result="BackgroundImageFix"/>
<feColorMatrix in="SourceAlpha" type="matrix" values="0 0 0 0 0 0 0 0 0 0 0 0 0 0 0 0 0 0 127 0" result="hardAlpha"/>
<feOffset dy="2"/>
<feGaussianBlur stdDeviation="0.5"/>
<feComposite in2="hardAlpha" operator="out"/>
<feColorMatrix type="matrix" values="0 0 0 0 0 0 0 0 0 0 0 0 0 0 0 0 0 0 0.25 0"/>
<feBlend mode="normal" in2="BackgroundImageFix" result="effect1_dropShadow_648_86"/>
<feColorMatrix in="SourceAlpha" type="matrix" values="0 0 0 0 0 0 0 0 0 0 0 0 0 0 0 0 0 0 127 0" result="hardAlpha"/>
<feOffset dy="-2"/>
<feGaussianBlur stdDeviation="2.5"/>
<feComposite in2="hardAlpha" operator="out"/>
<feColorMatrix type="matrix" values="0 0 0 0 1 0 0 0 0 1 0 0 0 0 1 0 0 0 0.85 0"/>
<feBlend mode="normal" in2="effect1_dropShadow_648_86" result="effect2_dropShadow_648_86"/>
<feBlend mode="normal" in="SourceGraphic" in2="effect2_dropShadow_648_86" result="shape"/>
</filter>
</defs>
</svg>
