<svg width="50" height="55" viewBox="0 0 50 55" fill="none" xmlns="http://www.w3.org/2000/svg">
<g filter="url(#filter0_dd_617_27)">
<mask id="path-1-outside-1_617_27" maskUnits="userSpaceOnUse" x="5" y="7" width="40" height="45" fill="black">
<rect fill="white" x="5" y="7" width="40" height="45"/>
<path fill-rule="evenodd" clip-rule="evenodd" d="M34.6194 43.1395C39.6562 39.8601 43 34.0814 43 27.5C43 17.2827 34.9411 9 25 9C15.0589 9 7 17.2827 7 27.5C7 34.0814 10.3438 39.8601 15.3806 43.1395L23.8387 49.1718C24.5336 49.6674 25.4664 49.6674 26.1613 49.1718L34.6194 43.1395Z"/>
</mask>
<path fill-rule="evenodd" clip-rule="evenodd" d="M34.6194 43.1395C39.6562 39.8601 43 34.0814 43 27.5C43 17.2827 34.9411 9 25 9C15.0589 9 7 17.2827 7 27.5C7 34.0814 10.3438 39.8601 15.3806 43.1395L23.8387 49.1718C24.5336 49.6674 25.4664 49.6674 26.1613 49.1718L34.6194 43.1395Z" fill="white"/>
<path d="M34.6194 43.1395L33.5282 41.4634L33.4926 41.4865L33.4581 41.5112L34.6194 43.1395ZM15.3806 43.1395L16.5419 41.5112L16.5074 41.4866L16.4719 41.4634L15.3806 43.1395ZM23.8387 49.1718L22.6774 50.8001H22.6774L23.8387 49.1718ZM26.1613 49.1718L27.3226 50.8001L26.1613 49.1718ZM41 27.5C41 33.3928 38.0083 38.5464 33.5282 41.4634L35.7107 44.8155C41.3041 41.1738 45 34.7699 45 27.5H41ZM25 11C33.7853 11 41 18.3353 41 27.5H45C45 16.2302 36.097 7 25 7V11ZM9 27.5C9 18.3353 16.2147 11 25 11V7C13.903 7 5 16.2302 5 27.5H9ZM16.4719 41.4634C11.9917 38.5465 9 33.3929 9 27.5H5C5 34.77 8.69597 41.1738 14.2894 44.8155L16.4719 41.4634ZM25 47.5435L16.5419 41.5112L14.2193 44.7678L22.6774 50.8001L25 47.5435ZM25 47.5435H25L22.6774 50.8001C24.0672 51.7913 25.9328 51.7913 27.3226 50.8001L25 47.5435ZM33.4581 41.5112L25 47.5435L27.3226 50.8001L35.7807 44.7678L33.4581 41.5112Z" fill="#0072BB" mask="url(#path-1-outside-1_617_27)"/>
</g>
<ellipse cx="25" cy="27.5" rx="15" ry="15.5" fill="#0072BB"/>
<path fill-rule="evenodd" clip-rule="evenodd" d="M25 46C34.9411 46 43 37.7173 43 27.5C43 17.2827 34.9411 9 25 9C15.0589 9 7 17.2827 7 27.5C7 37.7173 15.0589 46 25 46ZM25 43C33.2843 43 40 36.0604 40 27.5C40 18.9396 33.2843 12 25 12C16.7157 12 10 18.9396 10 27.5C10 36.0604 16.7157 43 25 43Z" fill="white"/>
<path fill-rule="evenodd" clip-rule="evenodd" d="M18.1184 20.7859C18.7603 19.7359 20.1026 19.7752 20.7807 20.6825C21.6942 21.9042 22.9817 23.1032 25.0189 23.1032C27.0914 23.1032 28.3593 22.1411 29.2226 20.9349C29.8933 19.9966 31.324 19.8455 32.0272 20.9587C32.6021 21.869 33.231 22.5932 34.4719 22.9004C34.6481 22.9495 34.8002 23.0732 34.8957 23.245C34.9913 23.4169 35.0228 23.6234 34.9835 23.8207C34.9443 24.018 34.8373 24.1904 34.6855 24.3014C34.5337 24.4124 34.3489 24.4531 34.1705 24.4149C32.4579 23.9929 31.5668 22.9294 30.8849 21.8504C30.8403 21.779 30.7593 21.7263 30.6375 21.7294C30.5758 21.7303 30.515 21.746 30.4593 21.7754C30.4036 21.8049 30.3542 21.8474 30.3147 21.9001C29.2207 23.4291 27.5677 24.655 25.0189 24.655C22.3928 24.655 20.7491 23.0701 19.7072 21.6735C19.6776 21.6342 19.6404 21.6028 19.5984 21.5817C19.5564 21.5605 19.5106 21.5502 19.4645 21.5514C19.4268 21.5498 19.3894 21.5589 19.3557 21.5777C19.3221 21.5965 19.2932 21.6245 19.2719 21.659C18.5779 22.7939 17.6877 23.966 15.8672 24.4149C15.7768 24.4402 15.6827 24.4449 15.5906 24.429C15.4984 24.4131 15.4101 24.3768 15.3308 24.3223C15.2515 24.2677 15.1828 24.1961 15.1288 24.1115C15.0748 24.027 15.0366 23.9312 15.0165 23.83C14.9963 23.7287 14.9946 23.624 15.0115 23.522C15.0284 23.42 15.0634 23.3228 15.1147 23.2362C15.1659 23.1495 15.2322 23.0752 15.3097 23.0175C15.3872 22.9598 15.4743 22.92 15.5659 22.9004C16.8793 22.5756 17.5082 21.7832 18.1184 20.7859ZM18.1184 25.9584C18.7603 24.9084 20.1026 24.9477 20.7807 25.855C21.6942 27.0767 22.9817 28.2757 25.0189 28.2757C27.0914 28.2757 28.3593 27.3136 29.2226 26.1074C29.8933 25.1691 31.324 25.0181 32.0272 26.1312C32.6021 27.0416 33.231 27.7657 34.4719 28.073C34.6481 28.1221 34.8002 28.2457 34.8957 28.4176C34.9913 28.5894 35.0228 28.7959 34.9835 28.9932C34.9443 29.1905 34.8373 29.363 34.6855 29.4739C34.5337 29.5849 34.3489 29.6256 34.1705 29.5875C32.4579 29.1654 31.5668 28.1019 30.8849 27.0229C30.8403 26.9516 30.7593 26.8988 30.6375 26.9019C30.5758 26.9028 30.515 26.9185 30.4593 26.948C30.4036 26.9774 30.3542 27.0199 30.3147 27.0726C29.2207 28.6026 27.5677 29.8275 25.0189 29.8275C22.3928 29.8275 20.7491 28.2416 19.7072 26.846C19.6776 26.8067 19.6404 26.7753 19.5984 26.7542C19.5564 26.733 19.5106 26.7227 19.4645 26.724C19.4268 26.7224 19.3894 26.7314 19.3557 26.7502C19.3221 26.769 19.2932 26.797 19.2719 26.8315C18.5779 27.9664 17.6877 29.1385 15.8672 29.5875C15.6865 29.6319 15.4973 29.5947 15.3413 29.484C15.1852 29.3733 15.0751 29.1983 15.0352 28.9973C14.9952 28.7963 15.0286 28.5859 15.1282 28.4124C15.2277 28.2388 15.3851 28.1164 15.5659 28.0719C16.8793 27.7492 17.5082 26.9557 18.1184 25.9584ZM18.1184 31.131C18.7603 30.0809 20.1026 30.1202 20.7807 31.0275C21.6942 32.2493 22.9817 33.4482 25.0189 33.4482C27.0914 33.4482 28.3593 32.4862 29.2226 31.2799C29.8933 30.3416 31.324 30.1906 32.0272 31.3037C32.6021 32.2141 33.231 32.9382 34.4719 33.2455C34.6481 33.2946 34.8002 33.4182 34.8957 33.5901C34.9913 33.7619 35.0228 33.9685 34.9835 34.1657C34.9443 34.363 34.8373 34.5355 34.6855 34.6465C34.5337 34.7574 34.3489 34.7982 34.1705 34.76C32.4579 34.3379 31.5668 33.2744 30.8849 32.1955C30.8403 32.1241 30.7593 32.0713 30.6375 32.0744C30.5758 32.0753 30.515 32.091 30.4593 32.1205C30.4036 32.15 30.3542 32.1925 30.3147 32.2451C29.2207 33.7751 27.5677 35 25.0189 35C22.3928 35 20.7491 33.4151 19.7072 32.0186C19.6776 31.9792 19.6404 31.9478 19.5984 31.9267C19.5564 31.9056 19.5106 31.8952 19.4645 31.8965C19.4268 31.8949 19.3894 31.9039 19.3557 31.9227C19.3221 31.9415 19.2932 31.9695 19.2719 32.0041C18.5779 33.1389 17.6877 34.311 15.8672 34.76C15.6865 34.8044 15.4973 34.7672 15.3413 34.6566C15.1852 34.5459 15.0751 34.3708 15.0352 34.1698C14.9952 33.9688 15.0286 33.7584 15.1282 33.5849C15.2277 33.4114 15.3851 33.2889 15.5659 33.2444C16.8793 32.9217 17.5082 32.1282 18.1184 31.131Z" fill="white"/>
<defs>
<filter id="filter0_dd_617_27" x="0" y="0" width="50" height="54.5435" filterUnits="userSpaceOnUse" color-interpolation-filters="sRGB">
<feFlood flood-opacity="0" result="BackgroundImageFix"/>
<feColorMatrix in="SourceAlpha" type="matrix" values="0 0 0 0 0 0 0 0 0 0 0 0 0 0 0 0 0 0 127 0" result="hardAlpha"/>
<feOffset dy="2"/>
<feGaussianBlur stdDeviation="0.5"/>
<feComposite in2="hardAlpha" operator="out"/>
<feColorMatrix type="matrix" values="0 0 0 0 0 0 0 0 0 0 0 0 0 0 0 0 0 0 0.25 0"/>
<feBlend mode="normal" in2="BackgroundImageFix" result="effect1_dropShadow_617_27"/>
<feColorMatrix in="SourceAlpha" type="matrix" values="0 0 0 0 0 0 0 0 0 0 0 0 0 0 0 0 0 0 127 0" result="hardAlpha"/>
<feOffset dy="-2"/>
<feGaussianBlur stdDeviation="2.5"/>
<feComposite in2="hardAlpha" operator="out"/>
<feColorMatrix type="matrix" values="0 0 0 0 1 0 0 0 0 1 0 0 0 0 1 0 0 0 0.85 0"/>
<feBlend mode="normal" in2="effect1_dropShadow_617_27" result="effect2_dropShadow_617_27"/>
<feBlend mode="normal" in="SourceGraphic" in2="effect2_dropShadow_617_27" result="shape"/>
</filter>
</defs>
</svg>
