<svg width="50" height="55" viewBox="0 0 50 55" fill="none" xmlns="http://www.w3.org/2000/svg">
<g filter="url(#filter0_dd_546_1663)">
<mask id="path-1-outside-1_546_1663" maskUnits="userSpaceOnUse" x="5" y="7" width="40" height="45" fill="black">
<rect fill="white" x="5" y="7" width="40" height="45"/>
<path fill-rule="evenodd" clip-rule="evenodd" d="M34.6194 43.1395C39.6562 39.8601 43 34.0814 43 27.5C43 17.2827 34.9411 9 25 9C15.0589 9 7 17.2827 7 27.5C7 34.0814 10.3438 39.8601 15.3806 43.1395L23.8387 49.1718C24.5336 49.6674 25.4664 49.6674 26.1613 49.1718L34.6194 43.1395Z"/>
</mask>
<path fill-rule="evenodd" clip-rule="evenodd" d="M34.6194 43.1395C39.6562 39.8601 43 34.0814 43 27.5C43 17.2827 34.9411 9 25 9C15.0589 9 7 17.2827 7 27.5C7 34.0814 10.3438 39.8601 15.3806 43.1395L23.8387 49.1718C24.5336 49.6674 25.4664 49.6674 26.1613 49.1718L34.6194 43.1395Z" fill="white"/>
<path d="M34.6194 43.1395L33.5282 41.4634L33.4926 41.4865L33.4581 41.5112L34.6194 43.1395ZM15.3806 43.1395L16.5419 41.5112L16.5074 41.4866L16.4719 41.4634L15.3806 43.1395ZM23.8387 49.1718L22.6774 50.8001H22.6774L23.8387 49.1718ZM26.1613 49.1718L27.3226 50.8001L26.1613 49.1718ZM41 27.5C41 33.3928 38.0083 38.5464 33.5282 41.4634L35.7107 44.8155C41.3041 41.1738 45 34.7699 45 27.5H41ZM25 11C33.7853 11 41 18.3353 41 27.5H45C45 16.2302 36.097 7 25 7V11ZM9 27.5C9 18.3353 16.2147 11 25 11V7C13.903 7 5 16.2302 5 27.5H9ZM16.4719 41.4634C11.9917 38.5465 9 33.3929 9 27.5H5C5 34.77 8.69597 41.1738 14.2894 44.8156L16.4719 41.4634ZM25 47.5435L16.5419 41.5112L14.2193 44.7678L22.6774 50.8001L25 47.5435ZM25 47.5435H25L22.6774 50.8001C24.0672 51.7913 25.9328 51.7913 27.3226 50.8001L25 47.5435ZM33.4581 41.5112L25 47.5435L27.3226 50.8001L35.7807 44.7678L33.4581 41.5112Z" fill="#95C1D3" mask="url(#path-1-outside-1_546_1663)"/>
</g>
<ellipse cx="25" cy="27.5" rx="15" ry="15.5" fill="#95C1D3"/>
<path d="M34.057 33.1933L34.0574 33.1941C34.5185 34.0149 34.3715 35.0394 33.7062 35.7046L33.7049 35.706C33.3002 36.1199 32.7565 36.3234 32.22 36.3234C31.6847 36.3234 31.1497 36.1206 30.7337 35.7046L26.1237 31.0946L25.825 30.7959V31.2184V40.4984V40.6734H26C26.2406 40.6734 26.6645 40.7813 27.1838 40.9763C27.6957 41.1684 28.2787 41.4367 28.8281 41.7392C29.3785 42.0422 29.8887 42.376 30.2586 42.6976C30.4437 42.8586 30.5888 43.0123 30.6864 43.1532C30.7292 43.2152 30.761 43.2719 30.7832 43.3234H19.2168C19.239 43.2719 19.2708 43.2152 19.3136 43.1532C19.4112 43.0123 19.5563 42.8586 19.7414 42.6976C20.1113 42.376 20.6215 42.0422 21.1719 41.7392C21.7213 41.4367 22.3043 41.1684 22.8162 40.9763C23.3355 40.7813 23.7594 40.6734 24 40.6734H24.175V40.4984V30.3184V30.1953L24.0591 30.1537C23.6909 30.0215 23.3725 29.8241 23.1214 29.5823L23.0254 29.4899L22.9107 29.5579L20.6507 30.8979L20.6507 30.8978L20.6486 30.8992C20.3664 31.0721 20.0381 31.1634 19.71 31.1634C19.5488 31.1634 19.3749 31.1364 19.2075 31.09C19.2073 31.0899 19.2071 31.0898 19.2068 31.0898L14.6981 29.8001L14.6981 29.8001C13.7934 29.5416 13.175 28.7204 13.175 27.7784C13.175 26.595 14.0966 25.6734 15.28 25.6734H22.77H22.8469L22.8989 25.6168C23.2199 25.2674 23.6162 25.0033 24.0595 24.8429L24.175 24.8012V24.6784V21.2784C24.175 20.7765 24.3851 20.2933 24.7488 19.9569L24.7496 19.9562L28.1796 16.7462L28.1796 16.7461C28.5134 16.4336 28.9396 16.2376 29.3942 16.1877C29.8485 16.1377 30.3068 16.2363 30.7004 16.4687C31.6973 17.0691 32.02 18.3614 31.4201 19.3581L31.42 19.3582L27.46 25.9482L27.4076 26.0354L27.4574 26.124C27.673 26.5084 27.7873 26.9334 27.8256 27.3832L27.8362 27.5077L27.9574 27.5381L30.6253 28.2076C30.6256 28.2077 30.626 28.2078 30.6263 28.2079C31.1111 28.3363 31.5252 28.6517 31.7779 29.0849L34.057 33.1933ZM19.672 29.5067L19.7452 29.5276L19.8104 29.4882L22.1304 28.0882L22.245 28.019L22.2083 27.8903C22.1762 27.778 22.175 27.6532 22.175 27.4984V27.3234H22H15.28C15.0333 27.3234 14.825 27.5317 14.825 27.7784C14.825 27.985 14.9636 28.1395 15.1327 28.2099L15.1421 28.2139L15.152 28.2167L19.672 29.5067ZM25.825 24.6384V24.8004L25.9866 24.8129L26.1166 24.8229L26.2245 24.8312L26.2801 24.7383L30.019 18.5001C30.0193 18.4997 30.0195 18.4994 30.0197 18.4991C30.1549 18.2779 30.0644 18.0041 29.8617 17.8793L29.8619 17.8791L29.8524 17.874C29.7449 17.8167 29.6367 17.8008 29.5364 17.8204C29.4401 17.8392 29.3633 17.8884 29.3086 17.9424L25.8804 21.1506L25.825 21.2025V21.2784V24.6384ZM32.5437 34.5421L32.544 34.5423L32.5508 34.5346C32.6697 34.4008 32.7258 34.1818 32.6236 33.9946L32.6228 33.993L30.3428 29.913L30.3061 29.8474L30.2333 29.8288L27.4533 29.1188L27.3439 29.0909L27.2733 29.1791C27.2538 29.2035 27.2355 29.2268 27.2181 29.2489C27.1557 29.3283 27.1052 29.3925 27.0548 29.4367L26.9143 29.5596L27.046 29.6919L31.876 34.5419L31.8758 34.5421L31.8837 34.5492C32.0177 34.6682 32.1659 34.6917 32.2898 34.6694C32.4037 34.6488 32.4954 34.5905 32.5437 34.5421ZM23.825 27.4984C23.825 28.145 24.3533 28.6734 25 28.6734C25.6467 28.6734 26.175 28.145 26.175 27.4984C26.175 26.8517 25.6467 26.3234 25 26.3234C24.3533 26.3234 23.825 26.8517 23.825 27.4984Z" fill="white" stroke="#95C1D3" stroke-width="0.35"/>
<path fill-rule="evenodd" clip-rule="evenodd" d="M25 46C34.9411 46 43 37.7173 43 27.5C43 17.2827 34.9411 9 25 9C15.0589 9 7 17.2827 7 27.5C7 37.7173 15.0589 46 25 46ZM25 43C33.2843 43 40 36.0604 40 27.5C40 18.9396 33.2843 12 25 12C16.7157 12 10 18.9396 10 27.5C10 36.0604 16.7157 43 25 43Z" fill="white"/>
<defs>
<filter id="filter0_dd_546_1663" x="0" y="0" width="50" height="54.5435" filterUnits="userSpaceOnUse" color-interpolation-filters="sRGB">
<feFlood flood-opacity="0" result="BackgroundImageFix"/>
<feColorMatrix in="SourceAlpha" type="matrix" values="0 0 0 0 0 0 0 0 0 0 0 0 0 0 0 0 0 0 127 0" result="hardAlpha"/>
<feOffset dy="2"/>
<feGaussianBlur stdDeviation="0.5"/>
<feComposite in2="hardAlpha" operator="out"/>
<feColorMatrix type="matrix" values="0 0 0 0 0 0 0 0 0 0 0 0 0 0 0 0 0 0 0.25 0"/>
<feBlend mode="normal" in2="BackgroundImageFix" result="effect1_dropShadow_546_1663"/>
<feColorMatrix in="SourceAlpha" type="matrix" values="0 0 0 0 0 0 0 0 0 0 0 0 0 0 0 0 0 0 127 0" result="hardAlpha"/>
<feOffset dy="-2"/>
<feGaussianBlur stdDeviation="2.5"/>
<feComposite in2="hardAlpha" operator="out"/>
<feColorMatrix type="matrix" values="0 0 0 0 1 0 0 0 0 1 0 0 0 0 1 0 0 0 0.85 0"/>
<feBlend mode="normal" in2="effect1_dropShadow_546_1663" result="effect2_dropShadow_546_1663"/>
<feBlend mode="normal" in="SourceGraphic" in2="effect2_dropShadow_546_1663" result="shape"/>
</filter>
</defs>
</svg>
