<svg width="50" height="55" viewBox="0 0 50 55" fill="none" xmlns="http://www.w3.org/2000/svg">
<g filter="url(#filter0_dd_704_108)">
<mask id="path-1-outside-1_704_108" maskUnits="userSpaceOnUse" x="5" y="7" width="40" height="45" fill="black">
<rect fill="white" x="5" y="7" width="40" height="45"/>
<path fill-rule="evenodd" clip-rule="evenodd" d="M34.6194 43.1395C39.6562 39.8601 43 34.0814 43 27.5C43 17.2827 34.9411 9 25 9C15.0589 9 7 17.2827 7 27.5C7 34.0814 10.3438 39.8601 15.3806 43.1395L23.8387 49.1718C24.5336 49.6674 25.4664 49.6674 26.1613 49.1718L34.6194 43.1395Z"/>
</mask>
<path fill-rule="evenodd" clip-rule="evenodd" d="M34.6194 43.1395C39.6562 39.8601 43 34.0814 43 27.5C43 17.2827 34.9411 9 25 9C15.0589 9 7 17.2827 7 27.5C7 34.0814 10.3438 39.8601 15.3806 43.1395L23.8387 49.1718C24.5336 49.6674 25.4664 49.6674 26.1613 49.1718L34.6194 43.1395Z" fill="white"/>
<path d="M34.6194 43.1395L33.5282 41.4634L33.4926 41.4865L33.4581 41.5112L34.6194 43.1395ZM15.3806 43.1395L16.5419 41.5112L16.5074 41.4866L16.4719 41.4634L15.3806 43.1395ZM23.8387 49.1718L22.6774 50.8001H22.6774L23.8387 49.1718ZM26.1613 49.1718L27.3226 50.8001L26.1613 49.1718ZM41 27.5C41 33.3928 38.0083 38.5464 33.5282 41.4634L35.7107 44.8155C41.3041 41.1738 45 34.7699 45 27.5H41ZM25 11C33.7853 11 41 18.3353 41 27.5H45C45 16.2302 36.097 7 25 7V11ZM9 27.5C9 18.3353 16.2147 11 25 11V7C13.903 7 5 16.2302 5 27.5H9ZM16.4719 41.4634C11.9917 38.5465 9 33.3929 9 27.5H5C5 34.77 8.69597 41.1738 14.2894 44.8155L16.4719 41.4634ZM25 47.5435L16.5419 41.5112L14.2193 44.7678L22.6774 50.8001L25 47.5435ZM25 47.5435H25L22.6774 50.8001C24.0672 51.7913 25.9328 51.7913 27.3226 50.8001L25 47.5435ZM33.4581 41.5112L25 47.5435L27.3226 50.8001L35.7807 44.7678L33.4581 41.5112Z" fill="#68C6E2" mask="url(#path-1-outside-1_704_108)"/>
</g>
<path d="M39.5 27.5C39.5 35.7999 32.9928 42.5 25 42.5C17.0072 42.5 10.5 35.7999 10.5 27.5C10.5 19.2001 17.0072 12.5 25 12.5C32.9928 12.5 39.5 19.2001 39.5 27.5Z" fill="#68C6E2" stroke="#68C6E2"/>
<path fill-rule="evenodd" clip-rule="evenodd" d="M25 46C34.9411 46 43 37.7173 43 27.5C43 17.2827 34.9411 9 25 9C15.0589 9 7 17.2827 7 27.5C7 37.7173 15.0589 46 25 46ZM25 43C33.2843 43 40 36.0604 40 27.5C40 18.9396 33.2843 12 25 12C16.7157 12 10 18.9396 10 27.5C10 36.0604 16.7157 43 25 43Z" fill="white"/>
<path d="M31.9979 33.048V34.4C31.9979 34.8243 31.7872 35.2313 31.4122 35.5314C31.0371 35.8314 30.5285 36 29.9981 36H19.9994C19.469 36 18.9604 35.8314 18.5853 35.5314C18.2103 35.2313 17.9996 34.8243 17.9996 34.4V31.44C17.5397 31.296 16.9498 31.2 15.9999 31.2C15.7347 31.2 15.4804 31.1157 15.2929 30.9657C15.1053 30.8157 15 30.6122 15 30.4C15 30.1878 15.1053 29.9843 15.2929 29.8343C15.4804 29.6843 15.7347 29.6 15.9999 29.6C16.8198 29.6 17.4697 29.664 17.9996 29.768V28.24C17.5397 28.096 16.9498 28 15.9999 28C15.7347 28 15.4804 27.9157 15.2929 27.7657C15.1053 27.6157 15 27.4122 15 27.2C15 26.9878 15.1053 26.7843 15.2929 26.6343C15.4804 26.4843 15.7347 26.4 15.9999 26.4C16.8198 26.4 17.4697 26.464 17.9996 26.568V25.04C17.5397 24.896 16.9498 24.8 15.9999 24.8C15.7347 24.8 15.4804 24.7157 15.2929 24.5657C15.1053 24.4157 15 24.2122 15 24C15 23.7878 15.1053 23.5843 15.2929 23.4343C15.4804 23.2843 15.7347 23.2 15.9999 23.2C16.8198 23.2 17.4697 23.264 17.9996 23.368V21.6C17.9996 21.1757 18.2103 20.7687 18.5853 20.4686C18.9604 20.1686 19.469 20 19.9994 20H29.9981C30.5285 20 31.0371 20.1686 31.4122 20.4686C31.7872 20.7687 31.9979 21.1757 31.9979 21.6V23.328C33.7777 23.576 34.5376 24.104 34.7075 24.232C35.0975 24.544 35.0975 25.056 34.7075 25.368C34.3176 25.68 33.7977 25.672 33.2877 25.368C33.2877 25.368 32.2478 24.8 29.9981 24.8C28.7383 24.8 27.9084 25.128 26.9485 25.52C25.9086 25.928 24.7388 26.4 22.999 26.4C22.639 26.4 22.3091 26.4 21.9991 26.368V24.76C22.2991 24.8 22.629 24.8 22.999 24.8C24.2588 24.8 25.0887 24.472 26.0486 24.088C27.0885 23.672 28.2683 23.2 29.9981 23.2V21.6H19.9994V34.4H29.9981V32.8C31.4979 32.8 31.9679 33.032 31.9979 33.048ZM29.9981 26.4C28.2683 26.4 27.0885 26.872 26.0486 27.288C25.0887 27.672 24.2588 28 22.999 28C22.629 28 22.2991 28 21.9991 27.96V29.568C22.3091 29.6 22.639 29.6 22.999 29.6C24.7388 29.6 25.9086 29.128 26.9485 28.72C27.9084 28.336 28.7383 28 29.9981 28C32.2478 28 33.2877 28.568 33.2877 28.568C33.7977 28.88 34.3176 28.88 34.7075 28.568C35.0975 28.256 35.0975 27.752 34.7075 27.432C34.4976 27.264 33.2477 26.4 29.9981 26.4ZM29.9981 29.6C28.2683 29.6 27.0885 30.072 26.0486 30.488C25.0887 30.872 24.2588 31.2 22.999 31.2C22.629 31.2 22.2991 31.2 21.9991 31.16V32.768C22.3091 32.8 22.639 32.8 22.999 32.8C24.7388 32.8 25.9086 32.328 26.9485 31.92C27.9084 31.536 28.7383 31.2 29.9981 31.2C32.2478 31.2 33.2877 31.768 33.2877 31.768C33.7977 32.08 34.3176 32.08 34.7075 31.768C35.0975 31.456 35.0975 30.952 34.7075 30.632C34.4976 30.464 33.2477 29.6 29.9981 29.6Z" fill="white"/>
<defs>
<filter id="filter0_dd_704_108" x="0" y="0" width="50" height="54.5435" filterUnits="userSpaceOnUse" color-interpolation-filters="sRGB">
<feFlood flood-opacity="0" result="BackgroundImageFix"/>
<feColorMatrix in="SourceAlpha" type="matrix" values="0 0 0 0 0 0 0 0 0 0 0 0 0 0 0 0 0 0 127 0" result="hardAlpha"/>
<feOffset dy="2"/>
<feGaussianBlur stdDeviation="0.5"/>
<feComposite in2="hardAlpha" operator="out"/>
<feColorMatrix type="matrix" values="0 0 0 0 0 0 0 0 0 0 0 0 0 0 0 0 0 0 0.25 0"/>
<feBlend mode="normal" in2="BackgroundImageFix" result="effect1_dropShadow_704_108"/>
<feColorMatrix in="SourceAlpha" type="matrix" values="0 0 0 0 0 0 0 0 0 0 0 0 0 0 0 0 0 0 127 0" result="hardAlpha"/>
<feOffset dy="-2"/>
<feGaussianBlur stdDeviation="2.5"/>
<feComposite in2="hardAlpha" operator="out"/>
<feColorMatrix type="matrix" values="0 0 0 0 1 0 0 0 0 1 0 0 0 0 1 0 0 0 0.85 0"/>
<feBlend mode="normal" in2="effect1_dropShadow_704_108" result="effect2_dropShadow_704_108"/>
<feBlend mode="normal" in="SourceGraphic" in2="effect2_dropShadow_704_108" result="shape"/>
</filter>
</defs>
</svg>
