<svg width="50" height="55" viewBox="0 0 50 55" fill="none" xmlns="http://www.w3.org/2000/svg">
<g filter="url(#filter0_dd_546_1672)">
<mask id="path-1-outside-1_546_1672" maskUnits="userSpaceOnUse" x="5" y="7" width="40" height="45" fill="black">
<rect fill="white" x="5" y="7" width="40" height="45"/>
<path fill-rule="evenodd" clip-rule="evenodd" d="M34.6194 43.1395C39.6562 39.8601 43 34.0814 43 27.5C43 17.2827 34.9411 9 25 9C15.0589 9 7 17.2827 7 27.5C7 34.0814 10.3438 39.8601 15.3806 43.1395L23.8387 49.1718C24.5336 49.6674 25.4664 49.6674 26.1613 49.1718L34.6194 43.1395Z"/>
</mask>
<path fill-rule="evenodd" clip-rule="evenodd" d="M34.6194 43.1395C39.6562 39.8601 43 34.0814 43 27.5C43 17.2827 34.9411 9 25 9C15.0589 9 7 17.2827 7 27.5C7 34.0814 10.3438 39.8601 15.3806 43.1395L23.8387 49.1718C24.5336 49.6674 25.4664 49.6674 26.1613 49.1718L34.6194 43.1395Z" fill="white"/>
<path d="M34.6194 43.1395L33.5282 41.4634L33.4926 41.4865L33.4581 41.5112L34.6194 43.1395ZM15.3806 43.1395L16.5419 41.5112L16.5074 41.4866L16.4719 41.4634L15.3806 43.1395ZM23.8387 49.1718L22.6774 50.8001H22.6774L23.8387 49.1718ZM26.1613 49.1718L27.3226 50.8001L26.1613 49.1718ZM41 27.5C41 33.3928 38.0083 38.5464 33.5282 41.4634L35.7107 44.8155C41.3041 41.1738 45 34.7699 45 27.5H41ZM25 11C33.7853 11 41 18.3353 41 27.5H45C45 16.2302 36.097 7 25 7V11ZM9 27.5C9 18.3353 16.2147 11 25 11V7C13.903 7 5 16.2302 5 27.5H9ZM16.4719 41.4634C11.9917 38.5465 9 33.3929 9 27.5H5C5 34.77 8.69597 41.1738 14.2894 44.8155L16.4719 41.4634ZM25 47.5435L16.5419 41.5112L14.2193 44.7678L22.6774 50.8001L25 47.5435ZM25 47.5435H25L22.6774 50.8001C24.0672 51.7913 25.9328 51.7913 27.3226 50.8001L25 47.5435ZM33.4581 41.5112L25 47.5435L27.3226 50.8001L35.7807 44.7678L33.4581 41.5112Z" fill="#FFBE54" mask="url(#path-1-outside-1_546_1672)"/>
</g>
<path d="M39.5 27.5C39.5 35.7999 32.9928 42.5 25 42.5C17.0072 42.5 10.5 35.7999 10.5 27.5C10.5 19.2001 17.0072 12.5 25 12.5C32.9928 12.5 39.5 19.2001 39.5 27.5Z" fill="#FFBE54" stroke="#FFBE54"/>
<path d="M23.9 19.45V18.05C23.9 17.7715 24.0159 17.5045 24.2222 17.3075C24.4285 17.1106 24.7083 17 25 17C25.2917 17 25.5715 17.1106 25.7778 17.3075C25.9841 17.5045 26.1 17.7715 26.1 18.05V19.45C26.1 19.7285 25.9841 19.9955 25.7778 20.1925C25.5715 20.3894 25.2917 20.5 25 20.5C24.7083 20.5 24.4285 20.3894 24.2222 20.1925C24.0159 19.9955 23.9 19.7285 23.9 19.45ZM31.2333 27.5C31.2333 28.6768 30.8678 29.8272 30.1828 30.8056C29.4979 31.7841 28.5244 32.5467 27.3854 32.9971C26.2464 33.4474 24.9931 33.5653 23.7839 33.3357C22.5748 33.1061 21.4641 32.5394 20.5924 31.7073C19.7206 30.8752 19.127 29.815 18.8864 28.6608C18.6459 27.5066 18.7694 26.3103 19.2412 25.223C19.7129 24.1358 20.5119 23.2066 21.5369 22.5528C22.562 21.899 23.7672 21.55 25 21.55C26.6527 21.5516 28.2371 22.179 29.4058 23.2945C30.5744 24.41 31.2316 25.9225 31.2333 27.5ZM29.0333 27.5C29.0333 26.7385 28.7968 25.9942 28.3536 25.3611C27.9104 24.7279 27.2805 24.2345 26.5435 23.9431C25.8065 23.6517 24.9955 23.5754 24.2131 23.724C23.4307 23.8725 22.7121 24.2392 22.148 24.7776C21.5839 25.3161 21.1998 26.0021 21.0442 26.7489C20.8885 27.4957 20.9684 28.2698 21.2737 28.9733C21.579 29.6768 22.0959 30.2781 22.7592 30.7012C23.4225 31.1242 24.2023 31.35 25 31.35C26.0693 31.3488 27.0945 30.9428 27.8507 30.2211C28.6068 29.4993 29.0321 28.5207 29.0333 27.5ZM17.9884 22.2929C18.0907 22.3905 18.2122 22.468 18.3459 22.5209C18.4796 22.5737 18.6229 22.6009 18.7676 22.6009C18.9123 22.6009 19.0556 22.5737 19.1893 22.5209C19.323 22.468 19.4444 22.3905 19.5468 22.2929C19.6491 22.1952 19.7302 22.0793 19.7856 21.9516C19.841 21.824 19.8695 21.6873 19.8695 21.5491C19.8695 21.411 19.841 21.2742 19.7856 21.1466C19.7302 21.019 19.6491 20.903 19.5468 20.8054L18.4467 19.7554C18.2401 19.5581 17.9598 19.4473 17.6676 19.4473C17.3753 19.4473 17.0951 19.5581 16.8884 19.7554C16.6818 19.9526 16.5657 20.2202 16.5657 20.4991C16.5657 20.7781 16.6818 21.0456 16.8884 21.2429L17.9884 22.2929ZM17.9884 32.7054L16.8884 33.7554C16.7861 33.853 16.7049 33.969 16.6496 34.0966C16.5942 34.2242 16.5657 34.361 16.5657 34.4991C16.5657 34.6373 16.5942 34.774 16.6496 34.9016C16.7049 35.0293 16.7861 35.1452 16.8884 35.2429C17.0951 35.4401 17.3753 35.5509 17.6676 35.5509C17.8123 35.5509 17.9556 35.5237 18.0893 35.4709C18.223 35.418 18.3444 35.3405 18.4467 35.2429L19.5468 34.1929C19.7534 33.9956 19.8695 33.7281 19.8695 33.4491C19.8695 33.1702 19.7534 32.9026 19.5468 32.7054C19.3401 32.5081 19.0598 32.3973 18.7676 32.3973C18.4753 32.3973 18.1951 32.5081 17.9884 32.7054ZM31.2333 22.6C31.3778 22.6001 31.5209 22.573 31.6545 22.5203C31.788 22.4676 31.9094 22.3904 32.0116 22.2929L33.1116 21.2429C33.2139 21.1452 33.2951 21.0293 33.3504 20.9016C33.4058 20.774 33.4343 20.6373 33.4343 20.4991C33.4343 20.361 33.4058 20.2242 33.3504 20.0966C33.2951 19.969 33.2139 19.853 33.1116 19.7554C33.0093 19.6577 32.8878 19.5802 32.7541 19.5274C32.6204 19.4745 32.4771 19.4473 32.3324 19.4473C32.1877 19.4473 32.0444 19.4745 31.9107 19.5274C31.777 19.5802 31.6556 19.6577 31.5532 19.7554L30.4532 20.8054C30.2985 20.9522 30.193 21.1397 30.1502 21.344C30.1073 21.5482 30.1291 21.76 30.2128 21.9524C30.2964 22.1448 30.4381 22.3091 30.6198 22.4244C30.8016 22.5397 31.0151 22.6009 31.2333 22.6ZM32.0116 32.7071C31.8049 32.5099 31.5247 32.3991 31.2324 32.3991C30.9402 32.3991 30.6599 32.5099 30.4532 32.7071C30.2466 32.9044 30.1305 33.1719 30.1305 33.4509C30.1305 33.7298 30.2466 33.9974 30.4532 34.1946L31.5532 35.2446C31.7599 35.4419 32.0402 35.5527 32.3324 35.5527C32.6247 35.5527 32.9049 35.4419 33.1116 35.2446C33.3182 35.0474 33.4343 34.7798 33.4343 34.5009C33.4343 34.2219 33.3182 33.9544 33.1116 33.7571L32.0116 32.7071ZM17.6667 27.5C17.6667 27.2215 17.5508 26.9545 17.3445 26.7575C17.1382 26.5606 16.8584 26.45 16.5667 26.45H15.1C14.8083 26.45 14.5285 26.5606 14.3222 26.7575C14.1159 26.9545 14 27.2215 14 27.5C14 27.7785 14.1159 28.0455 14.3222 28.2425C14.5285 28.4394 14.8083 28.55 15.1 28.55H16.5667C16.8584 28.55 17.1382 28.4394 17.3445 28.2425C17.5508 28.0455 17.6667 27.7785 17.6667 27.5ZM25 34.5C24.7083 34.5 24.4285 34.6106 24.2222 34.8075C24.0159 35.0045 23.9 35.2715 23.9 35.55V36.95C23.9 37.2285 24.0159 37.4955 24.2222 37.6925C24.4285 37.8894 24.7083 38 25 38C25.2917 38 25.5715 37.8894 25.7778 37.6925C25.9841 37.4955 26.1 37.2285 26.1 36.95V35.55C26.1 35.2715 25.9841 35.0045 25.7778 34.8075C25.5715 34.6106 25.2917 34.5 25 34.5ZM34.9 26.45H33.4333C33.1416 26.45 32.8618 26.5606 32.6555 26.7575C32.4492 26.9545 32.3333 27.2215 32.3333 27.5C32.3333 27.7785 32.4492 28.0455 32.6555 28.2425C32.8618 28.4394 33.1416 28.55 33.4333 28.55H34.9C35.1917 28.55 35.4715 28.4394 35.6778 28.2425C35.8841 28.0455 36 27.7785 36 27.5C36 27.2215 35.8841 26.9545 35.6778 26.7575C35.4715 26.5606 35.1917 26.45 34.9 26.45Z" fill="white" stroke="#FFBE54" stroke-width="0.25"/>
<defs>
<filter id="filter0_dd_546_1672" x="0" y="0" width="50" height="54.5435" filterUnits="userSpaceOnUse" color-interpolation-filters="sRGB">
<feFlood flood-opacity="0" result="BackgroundImageFix"/>
<feColorMatrix in="SourceAlpha" type="matrix" values="0 0 0 0 0 0 0 0 0 0 0 0 0 0 0 0 0 0 127 0" result="hardAlpha"/>
<feOffset dy="2"/>
<feGaussianBlur stdDeviation="0.5"/>
<feComposite in2="hardAlpha" operator="out"/>
<feColorMatrix type="matrix" values="0 0 0 0 0 0 0 0 0 0 0 0 0 0 0 0 0 0 0.25 0"/>
<feBlend mode="normal" in2="BackgroundImageFix" result="effect1_dropShadow_546_1672"/>
<feColorMatrix in="SourceAlpha" type="matrix" values="0 0 0 0 0 0 0 0 0 0 0 0 0 0 0 0 0 0 127 0" result="hardAlpha"/>
<feOffset dy="-2"/>
<feGaussianBlur stdDeviation="2.5"/>
<feComposite in2="hardAlpha" operator="out"/>
<feColorMatrix type="matrix" values="0 0 0 0 1 0 0 0 0 1 0 0 0 0 1 0 0 0 0.85 0"/>
<feBlend mode="normal" in2="effect1_dropShadow_546_1672" result="effect2_dropShadow_546_1672"/>
<feBlend mode="normal" in="SourceGraphic" in2="effect2_dropShadow_546_1672" result="shape"/>
</filter>
</defs>
</svg>
